<?xml version="1.0" standalone="no"?>
<!DOCTYPE svg PUBLIC "-//W3C//DTD SVG 20010904//EN"
 "http://www.w3.org/TR/2001/REC-SVG-20010904/DTD/svg10.dtd">
<svg version="1.0" xmlns="http://www.w3.org/2000/svg"
 width="600.000000pt" height="599.000000pt" viewBox="0 0 600.000000 599.000000"
 preserveAspectRatio="xMidYMid meet">

<g transform="translate(0.000000,599.000000) scale(0.100000,-0.100000)"
fill="#000000" stroke="none">
<path d="M2745 5584 c-16 -3 -79 -11 -140 -20 -376 -53 -789 -219 -1105 -444
-588 -420 -962 -1024 -1077 -1742 -28 -177 -25 -617 5 -792 98 -564 339 -1034
731 -1427 390 -389 868 -635 1422 -730 158 -27 503 -37 675 -20 414 42 815
183 1159 409 160 105 257 183 394 316 418 408 673 905 762 1487 32 206 32 542
0 748 -90 586 -341 1076 -762 1486 -383 373 -842 609 -1369 702 -127 22 -178
26 -405 28 -143 2 -273 1 -290 -1z m456 -384 c286 -28 605 -123 816 -242 l55
-31 -44 -44 -44 -44 -104 50 c-545 256 -1166 261 -1728 14 l-104 -46 -46 46
-46 46 108 52 c205 96 483 174 707 198 120 12 310 13 430 1z m938 -347 c-75
-421 -179 -996 -181 -998 -5 -4 -259 -63 -343 -79 -313 -62 -633 -81 -885 -52
-215 25 -618 109 -640 133 -4 4 -47 229 -95 498 -48 270 -89 501 -92 515 -4
18 69 -48 246 -219 l252 -244 -25 -26 c-58 -61 -81 -171 -56 -263 17 -59 69
-120 130 -151 89 -46 186 -30 259 44 64 63 92 161 73 246 -8 37 -36 91 -73
144 -10 13 17 52 151 218 134 168 164 201 175 190 7 -8 81 -101 165 -207 l153
-193 -26 -27 c-95 -100 -88 -288 15 -378 163 -143 393 -25 392 201 0 58 -5 79
-29 123 -15 29 -35 58 -42 64 -12 9 32 58 234 260 136 136 248 248 249 248 1
0 -3 -21 -7 -47z m-2290 -94 c1 -9 -46 -51 -106 -96 -143 -107 -236 -194 -334
-311 -61 -73 -180 -239 -215 -300 -4 -7 -84 39 -84 48 0 6 22 46 49 89 152
246 345 452 576 618 l90 65 12 -49 c6 -26 12 -55 12 -64z m2466 7 c160 -120
352 -324 465 -491 58 -86 110 -173 110 -183 0 -5 -19 -17 -43 -29 l-43 -21
-33 54 c-103 173 -296 391 -466 526 -55 44 -104 84 -108 88 -13 12 13 131 27
123 6 -4 47 -34 91 -67z m-3287 -710 c59 -37 191 -102 247 -121 28 -9 131 -28
230 -41 398 -55 488 -103 504 -269 l6 -59 67 -28 c145 -61 373 -108 616 -129
178 -15 603 -6 757 15 235 34 514 105 558 144 13 11 17 31 17 80 0 145 83 189
457 243 259 37 333 62 480 161 23 15 44 28 47 28 3 0 6 -51 6 -114 0 -122 2
-128 53 -140 l29 -7 -40 -43 c-66 -72 -132 -166 -174 -251 -136 -270 -284
-395 -530 -449 -25 -6 -28 -2 -44 47 -9 28 -32 88 -51 132 -31 75 -32 81 -16
93 32 23 115 42 187 43 l71 1 -62 29 c-33 17 -89 35 -122 42 l-61 13 25 50
c14 28 37 62 52 77 34 31 191 127 210 127 7 0 13 4 13 9 0 26 -231 -48 -301
-97 -62 -43 -123 -127 -140 -192 -11 -44 -10 -48 33 -140 108 -227 148 -385
155 -610 6 -189 -10 -291 -66 -437 -74 -189 -185 -308 -403 -432 l-58 -32 0
33 c-1 101 -71 273 -158 388 -110 145 -242 243 -382 283 -139 40 -331 40 -470
0 -140 -40 -272 -138 -382 -283 -84 -110 -158 -288 -158 -379 0 -17 -3 -31 -8
-31 -4 0 -38 18 -76 40 -218 127 -333 273 -400 504 -81 279 -43 606 109 932
39 85 41 93 30 130 -36 120 -120 206 -249 254 -56 21 -187 52 -194 45 -2 -2
33 -22 77 -45 118 -62 193 -134 216 -207 5 -20 3 -23 -22 -23 -49 0 -203 -52
-203 -69 0 -3 32 -7 70 -8 74 -2 161 -25 180 -48 9 -11 3 -37 -29 -119 -23
-57 -41 -109 -41 -115 0 -15 -4 -14 -90 10 -175 48 -323 166 -410 327 -87 160
-145 253 -207 326 l-62 75 29 6 c55 12 58 31 33 213 -3 23 -3 42 1 42 3 0 23
-11 44 -24z m1213 -321 c301 -72 652 -113 859 -100 231 14 535 61 752 116 42
10 81 19 88 19 7 0 10 -25 8 -77 l-3 -76 -40 -14 c-57 -20 -258 -69 -335 -82
-335 -55 -724 -61 -1038 -16 -120 17 -321 65 -397 94 l-50 19 -3 76 c-2 42 1
76 6 76 6 0 74 -16 153 -35z m-1268 -92 l26 -38 -23 -86 c-13 -47 -29 -119
-36 -160 -13 -80 -23 -99 -50 -99 -39 0 -43 23 -25 135 9 59 23 132 31 163 40
153 34 147 77 85z m4122 -75 c29 -117 48 -234 43 -273 -3 -26 -7 -30 -33 -30
-26 0 -31 4 -37 35 -4 19 -19 87 -33 150 -14 63 -25 121 -25 128 0 15 53 93
58 87 2 -2 14 -45 27 -97z m-7 -533 c1 -1 -1 -23 -4 -48 -5 -36 -11 -47 -24
-47 -18 0 -30 -36 -30 -90 0 -27 1 -28 80 -34 44 -4 84 -5 90 -1 5 3 10 31 10
61 0 48 -2 54 -21 54 -19 0 -21 4 -15 31 3 17 6 40 6 50 0 15 7 19 35 19 91 0
109 -34 95 -180 -14 -151 -14 -151 -213 -136 -101 7 -122 11 -144 30 -23 20
-26 30 -25 82 3 84 13 166 24 187 13 26 47 36 93 30 22 -3 41 -7 43 -8z
m-4033 -37 c3 -24 7 -82 8 -130 2 -83 1 -89 -24 -114 -23 -22 -38 -27 -97 -32
-68 -4 -72 -3 -100 24 -25 25 -30 40 -36 103 l-7 73 -58 -6 -58 -7 -6 48 c-3
26 -3 50 0 53 4 5 244 25 335 29 36 1 37 0 43 -41z m2160 -568 c106 -33 183
-78 256 -150 147 -147 229 -316 229 -474 0 -88 -15 -136 -57 -185 -75 -88
-204 -95 -383 -21 l-105 44 -145 0 -145 0 -115 -43 c-184 -68 -288 -68 -368 3
-52 46 -74 103 -74 195 -1 161 81 331 231 481 94 93 211 150 356 174 70 11
250 -3 320 -24z m1725 -26 c0 -7 -13 -44 -30 -82 -34 -81 -35 -88 -16 -95 10
-4 22 14 42 61 15 37 30 70 34 75 7 8 90 -24 90 -36 0 -4 -13 -39 -29 -76
l-29 -68 57 -23 c31 -13 59 -26 63 -29 9 -8 -21 -91 -32 -91 -4 0 -83 31 -176
69 -107 44 -168 74 -166 82 2 7 26 68 54 135 l50 122 44 -16 c24 -9 44 -22 44
-28z m-3797 12 c17 -13 93 -179 98 -214 2 -9 0 -29 -4 -43 -7 -29 -33 -43
-187 -105 -126 -51 -134 -47 -194 96 -26 59 -46 114 -46 123 0 31 38 58 150
106 122 52 154 59 183 37z m362 -613 c82 -95 99 -129 84 -173 -15 -42 -92
-100 -134 -100 -31 0 -34 -4 -60 -65 -16 -36 -31 -65 -35 -65 -3 0 -21 16 -40
35 l-33 34 28 67 c20 48 26 71 18 82 -16 27 -30 24 -71 -12 -22 -20 -44 -36
-50 -36 -13 0 -64 60 -60 71 4 11 269 239 278 239 4 0 38 -35 75 -77z m3265
-52 c-5 -9 -21 -31 -37 -49 l-28 -34 -47 37 -48 36 37 48 36 49 48 -36 c37
-27 46 -39 39 -51z m-425 -221 c28 -29 28 -30 9 -45 -43 -35 -65 -47 -71 -41
-5 5 -32 -12 -82 -50 -2 -2 2 -10 9 -19 10 -13 20 -9 70 30 90 69 120 63 195
-44 41 -60 30 -87 -58 -154 -101 -75 -113 -81 -145 -67 -15 6 -35 22 -46 36
l-18 26 33 28 c19 16 40 27 47 25 13 -5 91 43 92 55 0 3 -4 11 -9 19 -7 10
-22 3 -67 -33 -78 -61 -109 -62 -159 -3 -84 97 -80 125 32 210 90 68 123 74
168 27z m-1048 -27 c29 -10 53 -21 53 -25 0 -4 -26 -34 -57 -65 -174 -175
-456 -174 -623 3 -59 62 -59 62 23 84 46 12 49 12 75 -12 108 -101 291 -103
399 -3 26 25 55 43 63 41 8 -3 39 -13 67 -23z m-1297 -124 c47 -28 91 -58 98
-67 18 -24 15 -70 -9 -109 -20 -31 -23 -33 -43 -20 -11 8 -32 20 -45 26 -17 9
-20 16 -12 24 18 18 14 24 -39 56 l-50 31 -23 -38 c-13 -20 -33 -54 -46 -74
l-22 -37 38 -24 c21 -13 44 -27 51 -31 8 -5 18 -1 26 9 12 16 15 16 55 -9 44
-28 44 -29 4 -83 -35 -48 -73 -45 -170 13 -91 54 -113 76 -113 113 0 27 119
237 148 259 29 22 66 13 152 -39z m1788 -156 c21 -19 102 -240 102 -279 0 -38
-30 -59 -131 -93 -115 -38 -153 -40 -174 -7 -16 24 -95 251 -95 272 0 29 41
58 130 89 109 39 140 42 168 18z m-1273 -65 c5 -5 -81 -342 -91 -356 -3 -5
-69 9 -84 18 -11 7 -6 37 30 167 60 221 51 204 99 189 22 -6 43 -14 46 -18z
m658 -235 c4 -102 6 -187 4 -188 -1 -1 -20 -5 -43 -8 l-41 -7 -83 103 -82 102
3 -100 4 -100 -52 -3 -53 -3 0 190 0 191 43 0 c43 0 45 -1 120 -96 l77 -97 0
96 0 96 33 4 c17 2 39 5 48 5 14 2 17 -22 22 -185z"/>
<path d="M2906 4544 c-53 -70 -96 -132 -96 -138 0 -6 42 -112 93 -236 74 -178
97 -226 113 -228 23 -3 20 -10 138 266 l87 203 -103 129 c-57 72 -110 130
-119 130 -9 0 -59 -55 -113 -126z"/>
<path d="M3660 3389 c-88 -48 -167 -99 -316 -203 -67 -47 -112 -59 -191 -49
-32 3 -53 2 -53 -4 0 -15 32 -41 71 -57 34 -14 37 -19 43 -72 16 -135 102
-244 271 -340 l50 -28 -55 63 c-66 75 -94 111 -86 111 3 0 31 -7 63 -15 31 -8
69 -15 83 -15 20 1 15 6 -30 30 -30 16 -66 38 -80 49 l-25 21 35 -10 c53 -15
139 -11 192 8 126 46 188 131 188 256 -1 39 -7 88 -14 108 -13 35 -12 38 6 44
11 3 54 3 94 -1 41 -4 74 -4 74 -1 0 7 -206 156 -216 156 -5 0 -52 -23 -104
-51z m78 -185 c29 -83 -5 -196 -71 -241 -113 -77 -303 -34 -345 77 -10 25 -8
26 67 53 42 15 130 56 196 91 66 35 125 63 130 62 6 -1 16 -20 23 -42z"/>
<path d="M2135 3349 l-109 -81 91 7 c103 8 111 4 93 -51 -7 -19 -12 -66 -12
-103 -1 -57 4 -77 28 -122 35 -64 96 -113 166 -134 59 -17 137 -19 188 -5 l35
10 -25 -20 c-14 -11 -50 -33 -80 -49 -45 -25 -50 -31 -30 -31 14 0 52 7 83 15
32 8 60 15 63 15 9 0 -34 -52 -93 -112 -31 -32 -52 -58 -48 -58 24 0 154 89
204 139 67 67 97 124 114 216 12 64 14 67 54 85 23 10 47 28 53 41 12 22 12
22 -49 15 -87 -10 -124 4 -252 95 -132 93 -333 209 -363 209 -1 0 -51 -36
-111 -81z m313 -183 c81 -40 171 -81 200 -90 60 -20 64 -33 26 -83 -52 -69
-159 -97 -258 -69 -93 27 -146 100 -146 201 0 35 19 115 27 115 2 0 70 -33
151 -74z"/>
<path d="M2945 2845 c-37 -13 -85 -55 -85 -74 0 -5 16 -1 35 9 56 28 124 34
195 16 73 -19 70 -19 70 -6 0 17 -86 60 -131 65 -26 3 -60 -1 -84 -10z"/>
<path d="M2901 2699 c-48 -15 -75 -33 -112 -69 -27 -27 -49 -53 -49 -59 0 -5
29 5 64 24 122 63 260 67 411 10 36 -13 65 -20 65 -16 0 5 -17 24 -37 41 -91
81 -225 108 -342 69z"/>
<path d="M904 2899 c3 -17 6 -42 6 -55 0 -19 5 -24 25 -24 24 0 25 3 25 55 0
55 0 55 -31 55 -30 0 -31 -2 -25 -31z"/>
<path d="M2795 2155 c-5 -2 -30 -9 -54 -15 -81 -21 -191 -154 -191 -231 0 -34
45 -89 71 -89 53 0 95 41 163 160 21 36 56 84 78 107 51 52 47 73 -14 72 -24
0 -47 -2 -53 -4z"/>
<path d="M3094 2146 c-4 -11 8 -32 39 -65 25 -26 55 -68 67 -92 53 -105 117
-169 169 -169 26 0 71 55 71 88 -1 75 -98 199 -178 227 -26 8 -73 18 -104 22
-48 5 -59 3 -64 -11z"/>
<path d="M1008 2287 c-43 -18 -78 -37 -78 -43 0 -6 10 -34 23 -61 l22 -50 75
31 c83 36 85 40 53 113 l-18 41 -77 -31z"/>
<path d="M1400 1725 c-10 -11 -6 -22 22 -54 30 -36 34 -38 50 -24 16 14 15 18
-14 54 -35 43 -40 46 -58 24z"/>
<path d="M3665 1114 c-22 -8 -45 -16 -52 -19 -9 -3 -5 -24 13 -77 13 -40 28
-76 33 -81 12 -12 123 24 118 37 -3 6 -15 44 -28 84 -12 39 -28 72 -33 71 -6
0 -29 -7 -51 -15z"/>
</g>
</svg>
