<?xml version="1.0" encoding="UTF-8"?>
<svg width="1920px" height="1080px" viewBox="0 0 1920 1080" version="1.1" xmlns="http://www.w3.org/2000/svg" xmlns:xlink="http://www.w3.org/1999/xlink">
    <title>twitch-kings-league-equipos-porcinos-fc</title>
    <defs>
        <linearGradient x1="100%" y1="34.1210395%" x2="0%" y2="65.8789605%" id="linearGradient-1">
            <stop stop-color="#EF76A6" offset="0%"></stop>
            <stop stop-color="#D60E4F" offset="100%"></stop>
        </linearGradient>
    </defs>
    <g id="twitch-kings-league-equipos-porcinos-fc" stroke="none" stroke-width="1" fill="none" fill-rule="evenodd">
        <rect id="Bg" fill="url(#linearGradient-1)" x="0" y="-1" width="1920" height="1082"></rect>
        <g id="santander/icon/santander_secundario" opacity="0.2" transform="translate(240.000000, -209.500000)" fill="#FFFFFF" fill-rule="nonzero">
            <g id="Kings-League-_-Fútbol-real-34">
                <path d="M720.001029,0 C322.359721,0 0,322.359721 0,720.001029 C0,1117.64028 322.359721,1440 720.001029,1440 C1117.64028,1440 1440,1117.64028 1440,720.001029 C1440,322.359721 1117.64028,0 720.001029,0 Z M720.001029,1410.52177 C338.623144,1410.52177 29.477814,1101.346 29.477814,720.001029 C29.477814,338.654 338.623144,29.4467519 720.001029,29.4467519 C1101.37891,29.4467519 1410.52177,338.623144 1410.52177,719.968115 C1410.52177,1101.31514 1101.346,1410.49092 720.001029,1410.49092 L720.001029,1410.52177 Z" id="Shape"></path>
                <path d="M84.7644008,722.082813 L174.286254,715.397241 L177.955501,764.403506 C179.043912,778.893709 172.296217,786.667486 157.774951,787.755691 L145.026081,788.72047 C130.504815,789.808676 122.699976,783.092248 121.611771,768.602044 L118.906481,732.376535 L85.6972951,734.863567 L84.7333386,722.051956 L84.7644008,722.082813 Z M131.748537,731.442612 L134.391703,766.985165 C134.640406,770.404063 135.573301,772.798526 137.19018,774.197353 C138.80706,775.598237 141.325772,776.157768 144.715253,775.908859 L156.189133,775.038706 C159.609471,774.789797 162.003934,773.855875 163.403173,772.238995 C164.802411,770.622115 165.362148,768.104226 165.113239,764.714128 L162.470278,729.173632 L131.748537,731.473468 L131.748537,731.442612 Z" id="Shape"></path>
                <path d="M142.134006,796.150711 C134.484684,796.150711 128.265869,794.099784 123.539478,790.057584 C118.128897,785.422941 115.050449,778.395892 114.366464,769.161575 L112.22091,740.242881 L79.011724,742.729913 L76.9593566,715.366385 L181.064806,707.592609 L185.262522,763.874831 C186.630698,782.314665 176.835822,793.663679 158.365544,795.062506 L145.616674,796.027285 C144.435076,796.119855 143.284541,796.150711 142.165274,796.150711 L142.134006,796.150711 Z M142.040819,768.571188 C142.413977,768.632901 143.097962,768.694614 144.186373,768.602044 L155.660253,767.729834 C156.748664,767.637265 157.432649,767.480925 157.774745,767.357499 C157.837075,766.985165 157.899199,766.331007 157.805807,765.211945 L155.691521,736.978265 L139.522107,738.189896 L141.636599,766.425634 C141.729786,767.513839 141.885302,768.196796 142.009757,768.538274 L142.040819,768.571188 Z" id="Shape"></path>
                <path d="M160.387055,980.948123 C158.769969,981.631079 157.122027,981.941701 155.411755,981.941701 C153.701484,981.941701 152.084604,981.600223 150.560911,980.978979 C149.037423,980.357735 147.669247,979.423812 146.456382,978.243038 C145.243722,977.060206 144.279765,975.661379 143.626842,974.044499 L123.943904,926.688028 C123.259713,925.071148 122.948885,923.421355 122.948885,921.711906 C122.948885,920.002457 123.290775,918.385577 123.912842,916.861267 C124.534703,915.336957 125.467391,913.968986 126.649195,912.757355 C127.830792,911.543667 129.230031,910.580945 130.84691,909.926787 L190.051447,885.330057 C191.668327,884.6471 193.347537,884.336479 195.026541,884.336479 C196.736813,884.336479 198.32263,884.677957 199.846323,885.330057 C201.338748,885.984215 202.737987,886.885224 203.950852,888.068056 C205.194574,889.24883 206.127469,890.647658 206.812483,892.264537 L226.494804,939.623065 C227.17776,941.239945 227.490439,942.918537 227.457526,944.627987 C227.426669,946.339493 227.085191,947.956372 226.494804,949.480683 C225.87356,951.002936 224.970493,952.370906 223.789719,953.584595 C222.606887,954.796226 221.20806,955.761005 219.59118,956.413105 L160.387055,981.009836 L160.387055,980.948123 Z M194.995479,897.146033 L135.790942,921.742763 L155.47388,969.101291 L214.678828,944.504561 L194.995479,897.146033 Z" id="Shape"></path>
                <path d="M155.536004,989.250573 L155.349425,989.250573 C152.706259,989.250573 150.156485,988.721899 147.79329,987.726263 C145.399033,986.730627 143.253479,985.300944 141.356628,983.466011 C139.428715,981.600223 137.93629,979.362099 136.878941,976.842153 L117.196003,929.485682 C116.13886,926.967794 115.610185,924.324422 115.641248,921.650193 C115.641248,919.006821 116.169922,916.488932 117.164941,914.094469 C118.159959,911.700006 119.59026,909.523596 121.424987,907.657807 C123.290569,905.728249 125.529516,904.236852 128.048022,903.179503 L187.252559,878.582773 C189.771271,877.525424 192.414437,877.029664 195.119522,877.029664 C197.762688,877.029664 200.312462,877.589195 202.706719,878.582773 C205.038852,879.578409 207.153961,880.977236 209.01975,882.750455 C210.978108,884.616244 212.533274,886.885224 213.590623,889.436026 L233.272944,936.792497 C234.330293,939.3433 234.828111,942.017528 234.797254,944.75347 C234.733484,947.333071 234.237723,949.822161 233.303801,952.185767 C232.341078,954.611087 230.909338,956.787497 229.043549,958.684142 C227.17776,960.611644 224.939637,962.105098 222.421748,963.160389 L163.216388,987.757119 C160.759801,988.783612 158.178965,989.312286 155.567066,989.312286 L155.536004,989.250573 Z M145.336908,925.692392 L159.422687,959.554295 L205.132039,940.554931 L191.04626,906.693028 L145.336908,925.692392 Z" id="Shape"></path>
                <path d="M307.900374,1112.29182 C298.448005,1120.5017 289.555167,1121.1538 281.22186,1114.21932 L264.865867,1150.78837 L255.536924,1140.0606 L271.705721,1103.95852 L253.267944,1082.72103 L226.184182,1106.22955 L217.756248,1096.52622 L285.574681,1037.69525 L317.788847,1074.82177 C327.302929,1085.79845 326.558259,1096.06131 315.58158,1105.60625 L307.869517,1112.29182 L307.900374,1112.29182 Z M263.000079,1074.32601 L286.352264,1101.22257 C288.590387,1103.80218 290.766798,1105.1722 292.881495,1105.32649 C294.996193,1105.48283 297.359799,1104.42548 299.939401,1102.1853 L306.719599,1096.31022 C309.299201,1094.07004 310.667171,1091.89363 310.823511,1089.77893 C310.97985,1087.66424 309.922502,1085.30269 307.682321,1082.72103 L284.330136,1055.82446 L263.000079,1074.32601 Z" id="Shape"></path>
                <path d="M266.885938,1164.22122 L247.016421,1141.30309 L263.185217,1105.20306 L252.613787,1093.01269 L225.530024,1116.52122 L207.557152,1095.78155 L286.413977,1027.37273 L323.41707,1070.00404 C335.543667,1083.96557 334.455462,1098.95154 320.463076,1111.08019 L312.751012,1117.76576 C301.494568,1127.52875 291.731577,1127.37241 284.640758,1124.60562 L266.947651,1164.18831 L266.885938,1164.22122 Z M273.353457,1075.03982 L291.916716,1096.43365 C292.632586,1097.27294 293.161261,1097.70905 293.471883,1097.9271 C293.815418,1097.77076 294.374949,1097.39843 295.214245,1096.68256 L301.992386,1090.80543 C302.831682,1090.08956 303.267787,1089.56088 303.48584,1089.25026 C303.3295,1088.90878 302.957165,1088.34925 302.241295,1087.50995 L283.678035,1066.11613 L273.384313,1075.03982 L273.353457,1075.03982 Z" id="Shape"></path>
                <path d="M402.459033,1166.8646 C403.362099,1165.37114 404.512018,1164.09574 405.879988,1163.10216 C407.247959,1162.10653 408.741413,1161.42151 410.327436,1161.01832 C411.913459,1160.64393 413.561195,1160.55136 415.270644,1160.76941 C416.98215,1160.98746 418.566116,1161.547 420.05957,1162.448 L461.820732,1187.54255 C463.312129,1188.44356 464.556674,1189.59348 465.55231,1190.99231 C466.545888,1192.39319 467.230902,1193.88459 467.634094,1195.47061 C468.039342,1197.05663 468.131911,1198.70437 467.913859,1200.38296 C467.66495,1202.06361 467.105419,1203.64964 466.20441,1205.17189 L460.234709,1215.09122 L449.227174,1208.46942 L455.196874,1198.55009 L413.435712,1173.45554 L380.413105,1228.40065 L422.174268,1253.49314 L428.113112,1243.60467 L439.120647,1250.22852 L433.181803,1260.117 C432.280794,1261.61045 431.128819,1262.8838 429.760848,1263.87943 C428.392877,1264.87507 426.901481,1265.58888 425.282544,1265.96327 C423.665664,1266.36646 422.017928,1266.46109 420.339336,1266.21218 C418.660743,1265.96327 417.043863,1265.40374 415.55041,1264.50067 L373.791304,1239.40818 C372.297851,1238.50512 371.02245,1237.3552 370.028871,1235.98723 C369.033235,1234.61926 368.317365,1233.1258 367.94503,1231.50892 C367.539781,1229.89205 367.447212,1228.27517 367.696121,1226.56572 C367.914173,1224.88712 368.504561,1223.3011 369.40557,1221.77679 L402.428177,1166.83168 L402.459033,1166.8646 Z" id="Path"></path>
                <path d="M422.205124,1273.67328 C421.271201,1273.67328 420.308479,1273.61157 419.3437,1273.48814 C416.669471,1273.11375 414.151582,1272.21274 411.818832,1270.81391 L370.059727,1245.71936 C367.696121,1244.32054 365.704849,1242.4856 364.15174,1240.30919 C362.596573,1238.1945 361.508368,1235.83089 360.885067,1233.313 C360.263823,1230.82597 360.140397,1228.21345 360.481875,1225.60094 C360.85421,1222.95757 361.757277,1220.40882 363.156104,1218.04521 L396.17871,1163.1001 C397.577538,1160.76941 399.41247,1158.77814 401.58888,1157.19212 C403.734434,1155.63901 406.098041,1154.5508 408.61593,1153.9275 C411.041249,1153.33711 413.592052,1153.21369 416.171653,1153.52431 C418.878795,1153.86579 421.458397,1154.7668 423.822004,1156.19854 L465.583166,1181.29103 C467.944715,1182.72277 469.935987,1184.55565 471.52201,1186.79583 C473.013407,1188.91052 474.101612,1191.21036 474.724913,1193.63568 C475.377013,1196.15563 475.533353,1198.76608 475.158961,1201.3786 C474.786626,1204.05283 473.88356,1206.57072 472.484732,1208.93432 L462.752598,1225.10312 L439.244073,1210.95645 L445.215831,1201.03712 L415.986515,1183.46744 L390.488775,1225.91156 L419.718092,1243.48124 L425.656936,1233.59277 L449.163404,1247.74149 L439.462126,1263.87943 C438.063299,1266.21218 436.228367,1268.2014 434.051956,1269.78742 C431.906402,1271.34259 429.573652,1272.43079 427.055763,1273.05203 C425.46974,1273.45728 423.85286,1273.64242 422.205124,1273.64242 L422.205124,1273.67328 Z" id="Path"></path>
                <polygon id="Path" points="579.575238 1233.59277 555.478383 1320.09788 543.100819 1316.64607 567.199731 1230.14095"></polygon>
                <polygon id="Path" points="562.14544 1221.05681 534.125697 1321.61191 560.575873 1328.98249 588.593559 1228.42739"></polygon>
                <polygon id="Path" points="695.093677 1342.05124 682.251209 1342.26929 680.790669 1252.4975 693.631079 1252.28151 748.732527 1321.03181 747.611408 1251.4093 760.453876 1251.1933 761.916473 1340.96304 749.074006 1341.18109 693.974615 1272.43079"></polygon>
                <polygon id="Path" points="675.06782 1349.66868 673.389227 1245.28532 697.082891 1244.91092 741.082177 1299.79432 740.181168 1244.19711 767.606408 1243.76101 769.315858 1348.14643 745.591337 1348.51876 701.592052 1293.63742 702.493061 1349.23463"></polygon>
                <path d="M958.902195,1282.5044 C959.461726,1284.15214 959.710635,1285.83279 959.585152,1287.54224 C959.461726,1289.25169 959.025621,1290.83771 958.311808,1292.33116 C957.595937,1293.82256 956.600301,1295.12882 955.326957,1296.28079 C954.051556,1297.43071 952.588959,1298.27001 950.941223,1298.8604 L902.46569,1315.55787 C900.815897,1316.11945 899.137304,1316.36631 897.427855,1316.24288 C895.716349,1316.11945 894.132383,1315.71421 892.638929,1314.96748 C891.145475,1314.25367 889.841275,1313.25803 888.6893,1311.98263 C887.539381,1310.70723 886.700085,1309.24669 886.109698,1307.59895 L865.244545,1246.96391 C864.685014,1245.31617 864.436105,1243.63552 864.559531,1241.92607 C864.685014,1240.21662 865.119062,1238.66146 865.834932,1237.168 C866.550802,1235.70746 867.544381,1234.40121 868.819782,1233.22043 C870.064327,1232.06846 871.524867,1231.1983 873.205517,1230.60792 L921.68105,1213.91044 C923.328786,1213.35091 925.009436,1213.13286 926.718885,1213.25629 C928.428334,1213.41263 930.014357,1213.81582 931.507811,1214.53169 C932.999207,1215.24756 934.305465,1216.21028 935.424527,1217.48568 C936.576502,1218.76108 937.415798,1220.22162 938.006186,1221.86936 L958.871338,1282.5044 L958.902195,1282.5044 Z M877.401999,1242.76537 L898.267151,1303.40041 L946.744741,1286.70294 L925.879588,1226.0679 L877.401999,1242.76537 Z" id="Shape"></path>
                <path d="M898.328864,1323.5497 C897.861903,1323.5497 897.396999,1323.5497 896.899181,1323.48798 C894.255809,1323.30079 891.768776,1322.61783 889.436026,1321.49877 C887.134133,1320.37765 885.052349,1318.79163 883.27913,1316.83327 C881.475054,1314.84405 880.107083,1312.5113 879.236931,1309.92964 L858.371778,1249.29666 C857.470768,1246.715 857.12929,1244.04077 857.314429,1241.36654 C857.501625,1238.72317 858.186639,1236.20528 859.336557,1233.87253 C860.455619,1231.63441 861.979929,1229.58142 863.907431,1227.84112 C865.896645,1226.00619 868.229395,1224.60736 870.841911,1223.70429 L919.317443,1207.00682 C921.929959,1206.10581 924.635044,1205.76228 927.340128,1205.98033 C929.921787,1206.19838 932.377963,1206.85048 934.646943,1207.93869 C936.979693,1209.05981 939.063534,1210.61292 940.86761,1212.57333 C942.669629,1214.56255 944.037599,1216.8953 944.909809,1219.4749 L965.772905,1280.10994 C966.675971,1282.6916 967.01745,1285.36583 966.830254,1288.04006 C966.645115,1290.68343 965.960101,1293.17046 964.841039,1295.50321 C963.691121,1297.8339 962.135954,1299.91774 960.177596,1301.66011 C958.186325,1303.46213 955.853575,1304.8301 953.273973,1305.70231 L904.796383,1322.39978 C902.650829,1323.1465 900.474418,1323.48798 898.267151,1323.48798 L898.328864,1323.5497 Z M886.700085,1247.30539 L902.807168,1294.10233 L937.477511,1282.16293 L921.370428,1235.36599 L886.700085,1247.30539 Z" id="Shape"></path>
                <path d="M1064.68644,1193.9463 C1063.28556,1195.00365 1061.76331,1195.75038 1060.11557,1196.15563 C1058.46578,1196.55882 1056.81804,1196.65139 1055.1703,1196.46625 C1053.55342,1196.27905 1051.99826,1195.75038 1050.50686,1194.91108 C1049.01341,1194.07178 1047.73801,1192.95272 1046.68271,1191.55184 L1031.07139,1171.15365 C1030.01404,1169.75482 1029.26937,1168.23257 1028.83327,1166.58277 C1028.39716,1164.93504 1028.30459,1163.2873 1028.5535,1161.67042 C1028.77155,1160.05354 1029.30023,1158.49838 1030.13953,1156.97612 C1030.97882,1155.48267 1032.06703,1154.20727 1033.46585,1153.11906 L1068.07448,1126.62774 C1069.47331,1125.57039 1070.99762,1124.82367 1072.64536,1124.41842 C1074.29309,1124.0155 1075.94289,1123.9206 1077.59062,1124.1078 C1079.2075,1124.32585 1080.76061,1124.82367 1082.25407,1125.66296 C1083.74752,1126.50226 1085.02086,1127.62132 1086.07821,1129.02015 L1089.34283,1133.31126 L1079.14373,1141.11795 L1075.87912,1136.82684 L1041.27049,1163.31816 L1056.88181,1183.71635 L1091.48838,1157.22503 C1092.88927,1156.16768 1094.41152,1155.42096 1096.06131,1154.98485 C1097.70905,1154.5508 1099.35679,1154.45618 1101.00452,1154.67423 C1102.65226,1154.89228 1104.20742,1155.42096 1105.66796,1156.26025 C1107.16142,1157.09955 1108.43682,1158.21861 1109.49417,1159.61744 L1125.07258,1179.95392 C1126.12993,1181.35274 1126.8746,1182.87705 1127.3107,1184.52479 C1127.74681,1186.17252 1127.83937,1187.82232 1127.62132,1189.47005 C1127.40327,1191.11779 1126.8746,1192.67296 1126.0353,1194.1335 C1125.196,1195.62695 1124.07694,1196.90029 1122.67811,1197.95764 L1087.07385,1225.19775 C1085.67502,1226.25509 1084.15071,1226.99976 1082.50297,1227.43587 C1080.85524,1227.87197 1079.2075,1227.96454 1077.55977,1227.74649 C1075.90997,1227.52844 1074.35686,1226.99976 1072.86341,1226.16047 C1071.37201,1225.32117 1070.09661,1224.20211 1069.03926,1222.80328 L1065.21512,1217.85802 L1075.41421,1210.05338 L1079.23836,1214.99865 L1114.84057,1187.75855 L1099.26216,1167.42413 L1064.65559,1193.91544 L1064.68644,1193.9463 Z" id="Path"></path>
                <path d="M1079.26922,1235.20965 C1078.39906,1235.20965 1077.496,1235.14793 1076.62584,1235.02245 C1074.0771,1234.68097 1071.62092,1233.84167 1069.31903,1232.56627 C1066.98628,1231.26002 1064.96621,1229.48885 1063.28556,1227.31244 L1055.01602,1216.58467 L1076.81304,1199.91806 L1080.63719,1204.86127 L1104.67439,1186.4852 L1097.98881,1177.74665 L1069.19355,1199.79258 C1066.98628,1201.47117 1064.56096,1202.654 1061.91759,1203.3061 C1059.3997,1203.9294 1056.8489,1204.08368 1054.36186,1203.77306 C1051.78226,1203.46244 1049.32403,1202.62314 1046.99334,1201.31689 C1044.66059,1200.01063 1042.64051,1198.23741 1040.95987,1196.061 L1025.3506,1175.66281 C1023.70286,1173.4864 1022.52209,1171.06108 1021.83707,1168.47942 C1021.18497,1165.89982 1021.02864,1163.31816 1021.40097,1160.73856 C1021.74451,1158.24947 1022.55295,1155.82415 1023.82629,1153.55517 C1025.13255,1151.1607 1026.90577,1149.10772 1029.11303,1147.42913 L1063.72166,1120.93575 C1065.92893,1119.25716 1068.38511,1118.07638 1071.02848,1117.42223 C1073.54842,1116.80022 1076.09717,1116.64464 1078.5842,1116.95527 C1081.16586,1117.26794 1083.62204,1118.10724 1085.95479,1119.4135 C1088.28754,1120.7177 1090.30761,1122.49092 1091.9862,1124.66733 L1099.66741,1134.77385 L1077.87039,1151.44047 L1074.60577,1147.14936 L1051.62592,1164.7499 L1058.34235,1173.54811 L1087.13556,1151.50218 C1089.31197,1149.85445 1091.73729,1148.67367 1094.31895,1147.98866 C1096.86975,1147.33656 1099.44935,1147.18022 1102.00016,1147.5217 C1104.57976,1147.86523 1107.00508,1148.70453 1109.30697,1149.97787 C1111.63972,1151.31499 1113.69065,1153.08821 1115.33839,1155.23376 L1130.91679,1175.57024 C1132.56659,1177.74665 1133.74736,1180.14111 1134.43238,1182.75363 C1135.08448,1185.30237 1135.24082,1187.88403 1134.89728,1190.46363 C1134.5558,1193.01444 1133.71651,1195.50147 1132.4411,1197.7725 C1131.13485,1200.1032 1129.36369,1202.12533 1127.18727,1203.80392 L1091.58301,1231.04402 C1089.4066,1232.69176 1086.98128,1233.87253 1084.39962,1234.55755 C1082.72103,1234.99159 1081.04243,1235.20965 1079.33093,1235.20965 L1079.26922,1235.20965 Z" id="Path"></path>
                <polygon id="Path" points="1176.93821 1066.02356 1188.28722 1051.1281 1203.18267 1062.47918 1191.8316 1077.37257"></polygon>
                <path d="M1193.23043,1087.60252 L1166.70826,1067.42238 L1186.8884,1040.89815 L1213.41263,1061.07829 L1193.23043,1087.60252 Z M1187.16816,1064.65559 L1190.43278,1067.14262 L1192.91981,1063.878 L1189.65519,1061.39097 L1187.16816,1064.65559 Z" id="Shape"></path>
                <polygon id="Path" points="1212.75847 941.673993 1237.60411 881.133576 1249.4818 886.015071 1229.51971 934.6778 1253.27509 944.442848 1270.31609 902.899738 1282.19378 907.781233 1265.15483 949.324343 1300.72618 963.937973 1295.84469 975.817718 1212.78933 941.706906"></polygon>
                <polygon id="Path" points="1299.79432 985.3318 1203.24439 945.654479 1233.65448 871.617437 1259.02879 882.065441 1239.03379 930.699371 1249.2946 934.895852 1266.33561 893.383599 1291.70786 903.800747 1274.66891 945.343857 1310.24232 959.92663"></polygon>
                <path d="M1273.02118,787.786547 C1271.27882,787.663122 1269.63108,787.19616 1268.13763,786.38772 C1266.64623,785.610137 1265.33997,784.583645 1264.31348,783.308243 C1263.28699,782.034899 1262.44769,780.603159 1261.88816,778.986279 C1261.32863,777.369399 1261.11058,775.690807 1261.26692,773.950501 L1265.12192,725.380342 C1265.2474,723.637979 1265.74316,721.990243 1266.5516,720.496789 C1267.36004,719.005393 1268.38653,717.699135 1269.63108,716.641786 C1270.87562,715.553581 1272.30531,714.745141 1273.89133,714.216467 C1275.47735,713.687792 1277.1868,713.46974 1278.92917,713.626079 L1290.46538,714.557945 L1289.43888,727.3387 L1277.90267,726.404777 L1274.04561,774.974936 L1337.94527,780.074484 L1341.80233,731.504325 L1330.32784,730.603316 L1331.35433,717.791704 L1342.82883,718.694771 C1344.56913,718.818197 1346.21687,719.285158 1347.71032,720.093598 C1349.20172,720.871181 1350.50797,721.897674 1351.56532,723.171018 C1352.62267,724.415563 1353.43111,725.876103 1353.99064,727.492982 C1354.51932,729.109862 1354.73737,730.790512 1354.58103,732.530817 L1350.72603,781.100976 C1350.6026,782.843339 1350.13564,784.491075 1349.3272,785.982472 C1348.54962,787.475926 1347.52312,788.782183 1346.24772,789.839532 C1345.00524,790.927737 1343.54264,791.705321 1341.92576,792.264851 C1340.30888,792.793526 1338.63029,793.011578 1336.88792,792.855239 L1272.98826,787.755691 L1273.02118,787.786547 Z" id="Path"></path>
                <path d="M1337.97819,800.223767 C1337.44951,800.223767 1336.88998,800.223767 1336.33045,800.162054 L1272.39788,795.062506 C1269.66194,794.844453 1267.08233,794.099784 1264.71873,792.855239 C1262.38598,791.610694 1260.33299,789.993814 1258.68526,788.0046 C1257.06838,786.077098 1255.82589,783.836918 1254.95368,781.411598 C1254.05267,778.831996 1253.71119,776.157768 1253.92924,773.388913 L1257.78425,724.818754 C1258.0023,722.051956 1258.77988,719.439441 1260.05323,717.047035 C1261.26692,714.775998 1262.85294,712.786783 1264.78044,711.13699 C1266.7388,709.427541 1269.00984,708.15214 1271.52772,707.312843 C1274.07853,706.473547 1276.75276,706.132069 1279.45784,706.350121 L1298.27001,707.841518 L1296.0936,735.205046 L1284.55739,734.27318 L1281.8523,768.258509 L1331.19799,772.177282 L1333.90513,738.189896 L1322.43063,737.288887 L1324.60704,709.925359 L1343.3575,711.418812 C1346.09344,711.634808 1348.6751,712.381535 1351.03665,713.626079 C1353.3694,714.837711 1355.39153,716.45459 1357.07012,718.415005 C1358.74871,720.373363 1360.02411,722.642343 1360.86341,725.131433 C1361.70271,727.680178 1362.04418,730.354407 1361.82819,733.059492 L1357.97113,781.629651 C1357.75308,784.365592 1357.00841,786.947251 1355.76386,789.310858 C1354.55223,791.641551 1352.93329,793.663679 1350.97494,795.342271 C1349.01658,797.020864 1346.74554,798.296265 1344.25851,799.135561 C1342.23844,799.820575 1340.12374,800.162054 1337.94733,800.162054 L1337.97819,800.223767 Z" id="Path"></path>
                <path d="M851.81169,683.339414 C833.682478,692.419448 818.571031,697.457283 805.977472,699.757119 C806.506146,702.244152 807.12739,704.576902 807.750691,706.380978 C816.579759,731.691521 849.011978,746.430634 881.600537,739.901402 C911.389385,733.929644 927.152932,715.80249 929.765448,684.458476 C930.822797,671.864917 925.505196,657.282144 921.183232,647.766005 C907.968429,654.389863 887.726577,665.366542 851.81169,683.339414 Z" id="Path"></path>
                <path d="M1286.82843,486.664314 C1282.47355,485.514396 1279.51955,481.503054 1279.67589,477.024749 L1282.00864,414.990879 C1268.29397,425.284601 1246.77671,439.680178 1219.00999,452.460933 C1195.68866,463.21956 1167.3295,466.609658 1137.32466,470.215753 C1101.56405,474.506861 1064.56096,478.954308 1028.58436,495.620922 C1018.1055,500.471561 1010.42635,509.269773 1004.95241,520.559131 L1004.95241,553.674307 C1004.95241,557.560167 1002.68343,561.106605 999.169904,562.754341 C995.220274,564.589273 900.13294,607.841832 719.128819,607.841832 C538.126754,607.841832 455.507496,564.340364 452.086541,562.505432 C448.852782,560.763069 446.863567,557.375028 446.863567,553.705163 L446.863567,534.115412 C441.453397,516.609501 432.40422,502.709685 418.132069,496.085827 C382.155468,479.450069 345.183232,475.004678 309.393827,470.682714 C279.386927,467.074563 251.05862,463.655665 227.706435,452.927894 C199.038089,439.711035 174.75301,425.656936 159.423304,416.140797 L166.979233,476.652415 C167.570032,481.410484 164.553914,485.886731 159.889648,487.100419 L141.668073,491.889345 C158.676988,507.622037 187.066597,538.655429 209.920759,587.37987 C239.927659,651.374156 292.229395,691.020621 357.93313,700.036885 C364.275166,678.645115 372.392477,656.971522 382.248038,635.110733 C375.998571,626.466804 362.938051,621.772505 351.868803,619.347185 C344.749184,617.792019 337.191403,616.921866 329.54311,616.57833 C321.861903,616.236852 314.05727,616.454905 306.190924,617.201631 C313.061634,613.282858 320.27588,609.769334 327.800747,606.72277 C342.229238,601.156261 357.622508,596.834296 372.982865,596.708813 C367.354642,570.433491 346.830968,551.621322 321.738477,537.349171 C310.730941,530.974222 299.038392,525.376856 287.19156,520.123026 C327.241216,526.683114 370.837311,536.727927 396.33505,572.175853 C405.351314,584.674786 411.166732,599.601094 414.120726,614.527403 L414.059013,614.527403 L414.400491,614.838025 C412.721899,617.946301 411.074163,621.056635 409.48814,624.259537 C396.489332,650.504003 386.105098,676.374078 378.267551,701.840961 C377.708021,703.61418 377.179346,705.416198 376.650672,707.189417 C376.619815,707.3437 376.558102,707.469183 376.527246,707.625522 C375.002936,712.879353 373.573252,718.104383 372.266994,723.327357 C372.205281,723.637979 372.110655,723.948601 372.048942,724.228367 C370.806454,729.266201 369.654479,734.304036 368.59713,739.311015 C368.504561,739.714206 368.411991,740.150311 368.348221,740.553502 C368.006743,742.170382 367.696121,743.787262 367.385499,745.373285 C367.385499,745.465854 367.354642,745.560481 367.323786,745.65305 C366.731341,748.79424 366.171811,751.93543 365.643136,755.074563 C365.550567,755.603237 365.457997,756.131911 365.363371,756.660586 C365.114462,758.123183 364.898466,759.583723 364.680414,761.04632 C364.585787,761.667564 364.493218,762.288808 364.400649,762.942966 C364.026257,765.460854 363.684778,767.978743 363.374156,770.498689 C363.281587,771.181646 363.18696,771.897516 363.125247,772.58253 C362.968908,773.886731 362.814625,775.192989 362.689142,776.499246 C362.596573,777.369399 362.504003,778.272466 362.409377,779.142618 C362.285951,780.387163 362.160468,781.629651 362.037042,782.874196 C361.880703,784.678271 361.72642,786.511146 361.600937,788.315222 C361.508368,789.434284 361.446655,790.553345 361.384942,791.674464 C361.321172,792.762669 361.259459,793.850875 361.197746,794.93908 C361.136033,796.027285 361.072263,797.084634 361.041406,798.141983 C360.979693,799.851432 360.887124,801.530024 360.856267,803.241531 C360.823354,804.298879 360.792497,805.356228 360.792497,806.444433 C360.792497,807.781548 360.730784,809.118662 360.730784,810.455776 C360.730784,811.387642 360.730784,812.288651 360.730784,813.222574 C360.730784,814.77774 360.730784,816.332907 360.761641,817.886017 C360.761641,818.694457 360.761641,819.502896 360.792497,820.311336 C360.823354,822.115412 360.887124,823.950344 360.948837,825.75442 C360.948837,826.529946 361.01055,827.307529 361.041406,828.085112 C361.103119,829.671136 361.197746,831.226302 361.290315,832.812325 C361.321172,833.433569 361.352028,834.023957 361.384942,834.647258 C361.508368,836.731099 361.664707,838.812883 361.849846,840.865867 C361.911559,841.487111 361.975329,842.110412 362.006186,842.731656 C362.160468,844.379392 362.316807,846.027128 362.504003,847.644008 C362.565716,848.234395 362.627429,848.857696 362.689142,849.448083 C362.938051,851.562781 363.18696,853.677478 363.466726,855.792176 C363.530496,856.195367 363.592209,856.600616 363.623065,856.972951 C363.871974,858.777026 364.120883,860.548188 364.400649,862.352264 C364.493218,862.942651 364.585787,863.533039 364.680414,864.125483 C365.021892,866.271037 365.394227,868.383677 365.768619,870.529232 C376.837868,931.040849 404.232252,974.665743 426.18561,995.3437 C450.377092,1018.1055 476.590702,1036.04751 507.59118,1050.50686 C507.901802,1000.8485 537.038549,941.209088 588.064884,894.628144 C640.646386,846.617515 714.806854,848.110969 721.92853,848.359878 C729.079005,848.110969 803.179818,846.617515 855.792176,894.628144 C907.159989,941.51971 936.358449,1001.68779 936.263823,1051.53335 C968.261994,1036.88681 995.189417,1018.63417 1019.94043,995.3437 C1041.89379,974.665743 1069.28817,931.040849 1080.35742,870.529232 C1080.76267,868.416591 1081.10415,866.271037 1081.44563,864.125483 C1081.54025,863.533039 1081.63282,862.942651 1081.72539,862.352264 C1082.00516,860.579045 1082.25407,858.807883 1082.50297,857.034664 C1082.56469,856.600616 1082.62846,856.195367 1082.69017,855.792176 C1082.96994,853.677478 1083.21885,851.593637 1083.46775,849.47894 C1083.52947,848.888552 1083.59118,848.265251 1083.65495,847.674864 C1083.84009,846.057984 1083.99643,844.410248 1084.15071,842.793369 C1084.21448,842.141268 1084.27619,841.517967 1084.33791,840.865867 C1084.5251,838.812883 1084.67939,836.731099 1084.80487,834.647258 C1084.83572,834.05687 1084.86658,833.433569 1084.89744,832.843182 C1084.99206,831.288015 1085.08463,829.701992 1085.14635,828.148883 C1085.1772,827.340443 1085.20806,826.562859 1085.23892,825.75442 C1085.30269,824.07377 1085.3644,822.364321 1085.39526,820.654872 C1085.39526,819.751805 1085.42611,818.850796 1085.45697,817.949787 C1085.45697,816.39462 1085.48783,814.839453 1085.48783,813.25343 C1085.48783,812.288651 1085.48783,811.356785 1085.48783,810.392006 C1085.48783,809.118662 1085.45697,807.843261 1085.42611,806.598716 C1085.42611,805.605137 1085.39526,804.609501 1085.3644,803.644722 C1085.30269,801.80979 1085.23892,800.007771 1085.14635,798.172839 C1085.08463,797.053777 1085.02292,795.965572 1084.95915,794.844453 C1084.89744,793.820018 1084.83572,792.793526 1084.77401,791.767034 C1084.71024,790.586259 1084.61767,789.434284 1084.5251,788.253509 C1084.46339,787.227017 1084.36876,786.200524 1084.27619,785.174032 C1084.089,783.123105 1083.9018,781.039263 1083.71666,778.986279 C1083.62204,778.177839 1083.56032,777.400256 1083.46775,776.591816 C1083.31141,775.223845 1083.15713,773.855875 1083.00079,772.51876 C1082.93908,771.928373 1082.84651,771.307129 1082.78274,770.716742 C1082.44126,768.0096 1082.06893,765.273658 1081.66368,762.537717 C1081.60197,762.070756 1081.54025,761.605851 1081.44563,761.13889 C1081.22757,759.61458 1080.98072,758.092327 1080.73181,756.568016 C1080.66804,756.101055 1080.57547,755.634094 1080.51376,755.200046 C1079.70532,750.285637 1078.7714,745.342428 1077.74696,740.366306 C1077.68319,740.024828 1077.62148,739.714206 1077.52891,739.372728 C1076.4407,734.211467 1075.25787,729.017292 1073.95162,723.825175 C1073.92076,723.668836 1073.8899,723.514553 1073.82819,723.358214 C1071.99326,716.143968 1069.97319,708.86801 1067.73301,701.592052 C1059.92837,676.281508 1049.57499,650.53486 1036.66876,624.446733 C1033.77853,618.600459 1030.6682,612.87761 1027.43444,607.282301 C1040.27691,541.453083 1095.53264,521.709049 1154.36361,512.877924 C1131.5401,523.07702 1107.75181,534.800426 1089.99699,551.995714 C1078.74054,562.690571 1071.55715,575.471326 1068.60316,589.494568 C1091.95534,589.589195 1115.80535,599.103276 1135.36424,609.95653 C1120.09646,608.524789 1104.39462,608.960894 1089.65551,612.102084 C1079.05116,614.432776 1066.55223,618.880224 1060.05386,626.872053 C1071.62092,651.497582 1080.98072,675.845403 1088.1312,699.851746 C1154.08384,690.989765 1206.60363,651.281587 1236.7031,587.100105 C1259.55747,538.375663 1287.94749,507.342271 1304.95558,491.60958 L1286.7338,486.820654 L1286.82843,486.664314 Z M766.54906,780.666929 C738.253666,768.414848 708.154197,765.989529 681.660822,783.900688 C696.336164,750.721742 747.893231,751.686521 766.54906,780.666929 Z M576.559531,822.302608 C586.044813,813.440626 595.248273,804.329736 603.550724,794.690171 C610.390577,786.885538 616.454905,778.73737 621.305543,770.218924 C605.19846,778.116126 586.604344,780.572302 569.160147,783.153961 C585.546995,775.131276 604.608073,766.331007 616.393192,752.556674 C598.015071,761.04632 573.823589,762.879195 549.259773,754.142697 C505.571109,738.595144 495.40287,702.307922 499.632265,672.642501 C501.993814,656.132226 505.756248,647.301101 508.027285,643.040849 C502.150154,641.175061 497.361228,640.769812 490.365035,640.864439 C468.193624,641.144204 452.304593,644.532246 452.304593,644.532246 L512.721585,599.973429 C512.721585,599.973429 564.309508,623.014993 600.720156,649.975329 C637.132861,676.964465 646.336321,684.209567 663.377328,685.392399 C680.447133,686.573173 698.763541,682.220352 698.763541,682.220352 C698.763541,682.220352 691.765291,699.818832 666.58023,703.519553 C667.014278,714.868567 665.833504,726.437691 662.599744,737.288887 C650.129612,779.142618 612.225509,802.897995 576.559531,822.238838 L576.559531,822.302608 Z M722.549774,815.491554 C695.80749,815.709606 671.461726,824.199253 649.105176,840.180853 C668.756641,798.390892 726.53026,787.319586 765.709763,807.034821 C779.019192,813.440626 790.835168,822.674943 799.135561,834.460062 C774.261123,822.985565 749.384627,815.150075 722.58063,815.491554 L722.549774,815.491554 Z M956.166254,638.003014 C949.137147,637.910445 944.350278,638.313636 938.504003,640.179425 C940.772983,644.439676 944.535417,653.270801 946.899024,669.781076 C951.128419,699.446498 940.960179,735.73372 897.271516,751.281273 C872.707699,760.019828 848.51416,758.215753 830.138097,749.695249 C841.923216,763.47164 860.984293,772.269851 877.371142,780.292537 C859.926944,777.682078 841.332829,775.254702 825.225745,767.357499 C830.076384,775.847146 836.138654,784.024114 842.980565,791.828747 C851.283015,801.468311 860.486475,810.579202 869.969701,819.441183 C834.272866,800.100341 796.39962,776.344964 783.931544,734.491232 C780.666929,723.637979 779.484097,712.070913 779.951058,700.721899 C754.763941,697.021178 747.767748,679.420641 747.767748,679.420641 C747.767748,679.420641 766.082098,683.775519 783.153961,682.592687 C800.225824,681.411913 809.398427,674.166811 845.809076,647.175618 C882.221781,620.186482 933.807647,597.175775 933.807647,597.175775 L994.224638,641.734591 C994.224638,641.734591 978.335607,638.313636 956.19711,638.064727 L956.166254,638.003014 Z" id="Shape"></path>
                <path d="M594.688742,686.200839 C558.773855,668.227967 538.529946,657.282144 525.315143,650.627429 C520.993179,660.143568 515.644722,674.726342 516.702071,687.3199 C519.345443,718.663914 535.111048,736.821925 564.869039,742.760769 C597.45554,749.292058 629.88776,734.552945 638.718885,709.240345 C639.340128,707.469183 639.961372,705.105576 640.490047,702.618544 C627.927344,700.285794 612.815897,695.247959 594.657886,686.200839 L594.688742,686.200839 Z" id="Path"></path>
                <path d="M456.813754,204.510589 C597.797019,132.588245 767.016021,117.911462 921.837389,176.92942 C946.339493,185.946918 970.0023,196.643626 992.764098,208.86341 L1016.98644,184.734259 C837.226859,82.8677557 613.190289,81.188546 431.970172,179.759165 L456.813754,204.510589 Z" id="Path"></path>
                <polygon id="Path" points="685.174346 330.320693 726.032442 429.450226 768.632901 330.35155 726.032442 276.961608"></polygon>
                <path d="M899.509639,330.010071 C915.275244,343.442926 924.696756,363.964544 924.696756,386.166811 C924.696756,425.656936 894.938766,457.778533 858.340921,457.778533 C821.743077,457.778533 791.985086,425.656936 791.985086,386.166811 C791.985086,363.032678 802.058699,341.88776 818.881653,328.547474 L726.933451,213.185375 L634.987307,328.547474 C651.808204,341.88776 661.883874,363.032678 661.883874,386.166811 C661.883874,425.656936 632.125883,457.778533 595.528039,457.778533 C558.928137,457.778533 529.170146,425.656936 529.170146,386.166811 C529.170146,363.933687 538.560802,343.442926 554.357264,330.010071 L414.960022,191.139653 L467.136276,482.591259 C496.709128,491.296901 611.853175,523.046163 721.12009,523.046163 C830.387006,523.046163 959.92663,489.400256 986.85611,481.844532 L1038.90894,191.139653 L899.509639,330.010071 Z M785.237802,332.248195 L733.246688,453.238516 C731.971286,456.19251 729.079005,458.089155 725.876103,458.089155 L725.81439,458.089155 C722.58063,458.089155 719.68835,456.097884 718.476718,453.14389 L668.600301,332.153568 C667.512096,329.512253 667.915288,326.494489 669.65765,324.225509 L719.534067,259.081305 C721.025464,257.122947 723.358214,255.973029 725.81439,255.942173 L725.906959,255.942173 C728.334336,255.942173 730.634172,257.061234 732.158482,258.957879 L784.14754,324.102084 C785.982472,326.40192 786.418577,329.54311 785.237802,332.248195 Z" id="Shape"></path>
                <path d="M1220.78115,430.320379 C1229.61228,425.905845 1237.66582,421.365828 1244.88007,416.949237 C1196.18648,328.827239 1130.91679,259.486554 1056.10423,208.95598 L1049.82185,244.000714 C1119.62949,292.819782 1178.05727,356.842868 1220.78115,430.320379 Z" id="Path"></path>
                <path d="M1310.17855,609.022607 C1306.1055,583.275958 1300.35385,557.747363 1292.95241,532.716585 C1287.29333,539.712778 1281.38534,547.735463 1275.47735,556.782583 C1283.37661,583.368528 1289.40803,610.639486 1293.35766,638.375349 C1295.56492,651.871974 1314.87491,649.290315 1313.69414,635.795747 L1310.17855,608.99175 L1310.17855,609.022607 Z" id="Path"></path>
                <path d="M220.027285,428.485447 C265.612594,349.163718 328.921866,284.019514 402.677085,235.88546 L396.396763,200.779012 C316.731499,251.681921 247.141904,323.355357 195.804124,415.737606 C203.204537,419.841518 211.319586,424.132626 220.027285,428.485447 Z" id="Path"></path>
                <path d="M148.912969,526.403348 C140.610724,553.456255 134.205124,581.099548 129.789767,608.99175 L126.276037,635.795747 C125.560784,641.205917 129.261093,646.274608 134.702736,647.206474 C140.268629,648.171253 145.554755,644.40882 146.518712,638.842311 L146.611898,638.375349 L150.996399,612.692471 C155.194114,591.516696 160.480241,570.464347 166.854779,549.755534 C160.66682,540.800983 154.572253,533.058063 148.912969,526.434205 L148.912969,526.403348 Z" id="Path"></path>
                <path d="M842.918852,908.715156 C794.78274,864.746727 723.140161,867.420955 722.426348,867.451812 C722.146583,867.451812 721.835961,867.451812 721.523282,867.451812 C720.840325,867.420955 649.197746,864.746727 601.063691,908.715156 C528.332907,975.132704 512.505589,1057.78282 539.589352,1096.27731 C553.674307,1116.27231 575.440469,1124.51305 604.577216,1120.93575 C619.532324,1164.18831 663.749663,1195.59404 715.80249,1195.59404 C767.855317,1195.59404 812.755612,1163.69255 827.371299,1119.90926 C853.490282,1125.50662 884.677957,1124.20037 904.329422,1096.24645 C931.413184,1057.75196 915.61878,975.101848 842.855082,908.6843 L842.918852,908.715156 Z M625.471168,970.687314 C645.527882,951.562467 684.055285,952.278337 685.672164,952.309193 C688.190053,952.370906 690.39732,953.987786 691.20576,956.351392 C692.0142,958.714999 691.26953,961.358371 689.309115,962.944394 C689.154832,963.06782 673.389227,976.066627 665.273973,991.45784 C652.462362,1015.80566 637.163718,1041.14706 620.900295,1044.28825 C619.750377,1044.5063 618.631315,1044.62973 617.512253,1044.62973 C613.470054,1044.62973 609.645908,1043.16919 606.317522,1040.36948 C600.627587,1035.5497 597.517253,1029.05132 597.301258,1021.4956 C596.80344,1004.26945 611.509639,983.932973 625.440312,970.6544 L625.471168,970.687314 Z M712.786783,1158.52923 C679.328072,1158.52923 650.722056,1139.46815 638.99865,1112.47902 C642.07607,1111.39081 645.186403,1110.23884 648.389306,1108.96549 C648.638215,1108.87087 648.887124,1108.74744 649.136033,1108.65487 C650.473147,1108.1262 651.841118,1107.56667 653.209088,1107.00508 C654.856824,1106.32212 656.535417,1105.60625 658.246923,1104.85952 C676.964465,1096.62084 700.596416,1092.48402 723.668836,1092.48402 C746.741256,1092.48402 769.690249,1096.68256 786.231381,1105.07758 C786.605773,1105.26477 787.008964,1105.48283 787.445069,1105.70088 C787.506782,1105.70088 787.537638,1105.76259 787.601409,1105.76259 C788.0046,1105.98064 788.440705,1106.16578 788.905609,1106.41469 C779.050049,1136.57793 748.701671,1158.52923 712.786783,1158.52923 Z M841.114776,1021.4956 C840.896724,1029.02046 837.788447,1035.5497 832.096455,1040.36948 C828.770126,1043.20005 824.94598,1044.62973 820.903781,1044.62973 C819.782662,1044.62973 818.6636,1044.5063 817.513682,1044.28825 C801.250259,1041.1162 785.951615,1015.80566 773.142061,991.45784 C765.024749,976.066627 749.261202,963.06782 749.104862,962.944394 C747.146504,961.358371 746.399777,958.714999 747.239073,956.351392 C748.047513,953.987786 750.25478,952.370906 752.774726,952.309193 C754.391606,952.24748 792.916952,951.593323 812.973665,970.687314 C826.904338,983.963829 841.612594,1004.26945 841.114776,1021.52645 L841.114776,1021.4956 Z" id="Shape"></path>
                <path d="M311.693664,451.621637 C320.245023,452.646072 328.888952,453.672564 337.565795,454.886252 C353.329343,432.186167 371.178789,410.825254 391.01745,391.01745 C402.243038,379.791862 413.964386,369.220431 426.123897,359.270244 L420.806297,329.604823 C403.796147,342.665343 387.596494,356.906638 372.236138,372.236138 C347.980886,396.489332 326.558259,422.890138 308.056713,451.185532 C309.268344,451.341871 310.482033,451.465297 311.693664,451.621637 Z" id="Path"></path>
                <path d="M1102.74688,455.38407 C1112.60244,453.921473 1122.42921,452.709842 1132.16134,451.52701 C1113.59808,423.106133 1092.08083,396.583959 1067.73301,372.236138 C1056.10423,360.607358 1043.97763,349.630679 1031.38407,339.306101 L1025.9739,369.531053 C1033.84025,376.401763 1041.5194,383.585152 1048.95169,391.01745 C1068.91584,410.979536 1086.88871,432.496789 1102.74688,455.38407 Z" id="Path"></path>
                <path d="M635.485125,1190.30935 C628.176253,1185.30237 621.428969,1179.64329 615.366699,1173.45554 C589.309429,1167.45498 563.74792,1159.18339 538.904338,1148.67367 C483.492268,1125.22686 433.741334,1091.70849 391.01745,1048.95169 C348.293565,1006.22781 314.742284,956.476875 291.295472,901.064806 C267.042278,843.727292 254.728484,782.781626 254.728484,719.970172 C254.728484,705.79059 255.349728,691.703578 256.625129,677.711192 C248.042913,670.963908 239.958515,663.500754 232.371935,655.323786 C229.572223,676.622987 228.173396,698.171096 228.173396,719.970172 C228.173396,786.356864 241.172203,850.754341 266.824225,911.389385 C291.608151,969.940587 327.056077,1022.55295 372.205281,1067.70215 C417.354485,1112.85135 469.966844,1148.33219 528.518046,1173.08321 C576.621244,1193.41968 627.120962,1205.82605 679.079163,1210.05338 C663.500754,1206.01119 648.761641,1199.35853 635.454269,1190.24764 L635.485125,1190.30935 Z" id="Path"></path>
                <path d="M1183.71635,682.125726 C1184.71198,694.657572 1185.24066,707.281987 1185.24066,720.001029 C1185.24066,782.812483 1172.92687,843.727292 1148.67367,901.095662 C1125.22686,956.507732 1091.70849,1006.25867 1048.95169,1048.98255 C1006.22781,1091.70643 956.476875,1125.25772 901.064806,1148.70453 C872.831125,1160.64393 843.727292,1169.69311 813.969301,1175.78829 C808.6517,1180.94955 802.897995,1185.70762 796.679385,1189.99873 C782.283808,1199.91806 766.207581,1206.97596 749.197431,1210.95645 C805.261602,1207.69184 859.708892,1195.03451 911.389385,1173.14492 C969.940587,1148.36305 1022.55295,1112.91307 1067.70215,1067.76386 C1112.85135,1022.61466 1148.33219,970.0023 1173.08321,911.451097 C1198.73523,850.816054 1211.73403,786.418577 1211.73403,720.031885 C1211.73403,700.254937 1210.58206,680.634329 1208.25137,661.231774 C1200.5393,668.910923 1192.32942,675.907116 1183.65464,682.158639 L1183.71635,682.125726 Z" id="Path"></path>
                <path d="M466.889424,503.361785 L466.889424,547.330214 C487.380185,556.471961 568.505989,587.785119 719.128819,587.785119 C869.753705,587.785119 961.887045,556.099626 984.928609,546.988736 L984.928609,503.14579 C946.370349,513.593794 827.93083,543.069963 721.12009,543.069963 C614.309351,543.069963 504.139368,514.058699 466.85651,503.361785 L466.889424,503.361785 Z" id="Path"></path>
                <path d="M929.236773,274.038471 C887.477668,248.727927 828.428648,231.314586 761.542081,226.61823 L833.528196,316.918695 C836.636472,320.804554 838.035299,325.74982 837.475768,330.693028 C836.916238,335.636236 834.398349,340.11454 830.510432,343.224874 C817.916873,353.236773 810.671771,368.876895 810.671771,386.197667 C810.671771,415.365271 832.065599,439.120647 858.340921,439.120647 C884.616244,439.120647 906.010071,415.396127 906.010071,386.197667 C906.010071,369.623622 899.229874,354.324979 887.413898,344.251366 C883.435469,340.861267 881.071863,335.979772 880.85381,330.754741 C880.635758,325.531767 882.627029,320.463076 886.325693,316.793212 L929.236773,274.038471 Z" id="Path"></path>
                <path d="M692.573731,226.400177 C625.347743,230.629572 565.831761,247.732291 523.449355,272.824782 L567.60498,316.793212 C571.303643,320.493932 573.294915,325.531767 573.076863,330.754741 C572.85881,335.979772 570.495204,340.861267 566.516775,344.251366 C554.700799,354.324979 547.920602,369.592766 547.920602,386.197667 C547.920602,415.365271 569.314429,439.120647 595.589752,439.120647 C621.865074,439.120647 643.258902,415.396127 643.258902,386.197667 C643.258902,368.876895 636.0138,353.205917 623.420241,343.224874 C619.532324,340.145397 617.014435,335.636236 616.454905,330.693028 C615.895374,325.74982 617.325057,320.804554 620.402477,316.918695 L692.573731,226.400177 Z" id="Path"></path>
            </g>
        </g>
        <g id="santander/logo/santander_blanco" transform="translate(797.000000, 377.000000)" fill-rule="nonzero">
            <g id="Kings-League-_-Fútbol-real-21">
                <path d="M162.499869,325 C252.246197,325 325,252.246172 325,162.500187 C325,72.7538278 252.246197,0 162.499869,0 C72.7535406,0 0,72.7538278 0,162.500187 C0,252.246172 72.7535406,325 162.499869,325 Z" id="Path" fill="#000000"></path>
                <path d="M162.499869,318.351872 C248.575012,318.351872 318.352623,248.574237 318.352623,162.499438 C318.352623,76.4242656 248.575012,6.64663028 162.499869,6.64663028 C76.4251004,6.64663028 6.64733945,76.4242656 6.64733945,162.499438 C6.64733945,248.574237 76.4251004,318.351872 162.499869,318.351872 Z" id="Path" fill="#D50D4C"></path>
                <path d="M162.499869,270.500627 C222.146521,270.500627 270.499523,222.147235 270.499523,162.500936 C270.499523,102.854263 222.146521,54.5012449 162.499869,54.5012449 C102.853591,54.5012449 54.5002151,102.854263 54.5002151,162.500936 C54.5002151,222.147235 102.853591,270.500627 162.499869,270.500627 Z" id="Path" fill="#000000"></path>
                <path d="M162.499869,259.076287 C215.838029,259.076287 259.077059,215.837242 259.077059,162.499064 C259.077059,109.16126 215.838029,65.9222153 162.499869,65.9222153 C109.162084,65.9222153 65.9230537,109.16126 65.9230537,162.499064 C65.9230537,215.837242 109.162084,259.076287 162.499869,259.076287 Z" id="Path" fill="#000000"></path>
                <path d="M19.1345373,162.978745 L39.3436565,161.470428 L40.1678384,172.532667 C40.4116105,175.802809 38.8931836,177.558269 35.6163024,177.805036 L32.7397167,178.018852 C29.4594654,178.26225 27.7006366,176.750563 27.4572389,173.48042 L26.8464981,165.307874 L19.3479783,165.868437 L19.1345373,162.978745 Z M29.7361898,165.094433 L30.3334502,173.113452 C30.3903678,173.884086 30.6004387,174.424804 30.9644118,174.738599 C31.3280104,175.052021 31.8953141,175.178962 32.666323,175.122045 L35.2590696,174.928824 C36.0300784,174.871907 36.5704212,174.661836 36.8842169,174.297862 C37.1980127,173.934264 37.3245794,173.36696 37.2680363,172.595951 L36.6707759,164.577306 L29.7361898,165.094433 Z" id="Shape" fill="#FFFFFF"></path>
                <path d="M32.0821686,179.689309 C30.357041,179.689309 28.9487048,179.228726 27.8841209,178.314299 C26.6630137,177.266566 25.9653986,175.681485 25.8118708,173.599124 L25.3247011,167.068575 L17.8265558,167.629139 L17.3659726,161.452454 L40.8620833,159.700364 L41.8094619,172.407973 C42.1198875,176.569325 39.9075901,179.135486 35.736129,179.445537 L32.8595433,179.659353 C32.5929292,179.679199 32.3323065,179.689309 32.0787985,179.689309 L32.0821686,179.689309 Z M32.0589522,173.462446 C32.1420819,173.475927 32.2956096,173.492403 32.5427519,173.472557 L35.1354985,173.278962 C35.3860108,173.258741 35.5327983,173.222044 35.6129323,173.195458 C35.6260383,173.111954 35.6428889,172.961796 35.6226682,172.711658 L35.1456088,166.334638 L31.4980143,166.607992 L31.9754481,172.982017 C31.9952944,173.232155 32.0319913,173.378942 32.0589522,173.459076 L32.0589522,173.462446 Z" id="Shape" fill="#FFFFFF"></path>
                <path d="M36.1967122,221.40094 C35.8331136,221.554468 35.4560344,221.627861 35.0722151,221.624602 C34.6883957,221.621121 34.3247971,221.547727 33.9776746,221.40431 C33.6339222,221.260518 33.3234966,221.057187 33.0497679,220.786829 C32.7764136,220.51984 32.5625981,220.202674 32.4090704,219.835705 L27.9676251,209.147175 C27.8140973,208.783576 27.7407036,208.406497 27.7439628,208.022677 C27.7474438,207.638858 27.8208376,207.275259 27.9642549,206.928136 C28.1076723,206.584384 28.3113774,206.273958 28.581736,206.000604 C28.8487245,205.726875 29.1655159,205.513059 29.5328591,205.359532 L42.8942665,199.807068 C43.2612352,199.65691 43.6349442,199.580146 44.0187636,199.583057 C44.4025829,199.586512 44.7661816,199.659906 45.1065638,199.803698 C45.4469461,199.947115 45.7573717,200.153816 46.0374662,200.420804 C46.3179352,200.687793 46.5313762,201.004959 46.6849039,201.368558 L51.1267237,212.057088 C51.2768813,212.420687 51.3502751,212.797766 51.3435348,213.184956 C51.3367946,213.572145 51.2634008,213.935744 51.1233536,214.279497 C50.986302,214.623249 50.7829713,214.930305 50.5126127,215.207404 C50.2456242,215.480758 49.9284584,215.694574 49.5614896,215.848101 L36.2000823,221.40094 L36.1967122,221.40094 Z M44.0052831,202.486689 L30.6438758,208.039153 L35.0853211,218.727684 L48.4471029,213.17522 L44.0052831,202.486689 Z" id="Shape" fill="#FFFFFF"></path>
                <path d="M35.1021717,223.273979 L35.0587346,223.273979 C34.4648443,223.267239 33.8908004,223.153778 33.3500831,222.930226 C32.8097404,222.706675 32.3225706,222.382769 31.8986842,221.968993 C31.4646875,221.548851 31.1243053,221.04483 30.8876479,220.470786 L26.4458281,209.782256 C26.2091707,209.214952 26.0923398,208.617691 26.0956391,208.01032 C26.1020757,207.41643 26.2155365,206.842385 26.4390879,206.305038 C26.6630137,205.764695 26.9865453,205.274155 27.4003213,204.850269 C27.8242077,204.416272 28.3278536,204.075889 28.8951573,203.839232 L42.2569391,198.286394 C42.8272385,198.049362 43.4215032,197.935901 44.0288739,197.939198 C44.6261343,197.946011 45.2035484,198.062842 45.7405211,198.289764 C46.2643877,198.509945 46.7451916,198.830107 47.1687035,199.233772 C47.6128106,199.657659 47.9599331,200.16505 48.1999606,200.742464 L52.6417804,211.430994 C52.8818079,212.008034 52.9952687,212.608665 52.9821627,213.222776 C52.9686822,213.806931 52.8552214,214.370864 52.6447761,214.898101 C52.4245948,215.441814 52.1044333,215.932354 51.6839171,216.362981 C51.2600307,216.796604 50.7560104,217.136986 50.185711,217.374018 L36.8239292,222.926856 C36.2667358,223.157148 35.6863261,223.273979 35.0954315,223.273979 L35.1021717,223.273979 Z M32.79963,208.931487 L35.9765309,216.576422 L46.2947188,212.288503 L43.1178178,204.643193 L32.79963,208.931487 Z" id="Shape" fill="#FFFFFF"></path>
                <path d="M69.4968801,251.041541 C67.3613466,252.89361 65.35575,253.037402 63.4770946,251.475538 L59.786063,259.727844 L57.6838562,257.3051 L61.3378166,249.159515 L57.1798359,244.367575 L51.0630659,249.673645 L49.1645642,247.484564 L64.4712804,234.202911 L71.7428786,242.582159 C73.8918926,245.05845 73.7248844,247.374099 71.2422284,249.529854 L69.5036203,251.038171 L69.4968801,251.041541 Z M59.3659212,242.468698 L64.6349185,248.542408 C65.142309,249.126188 65.6328489,249.433243 66.1132784,249.46994 C66.5903377,249.503267 67.1243147,249.266235 67.705099,248.762589 L69.2298916,247.437756 C69.8140459,246.930366 70.1211014,246.439826 70.1577983,245.959396 C70.191125,245.482337 69.9540932,244.948359 69.4500728,244.367575 L64.1810755,238.29424 L59.3659212,242.472068 L59.3659212,242.468698 Z" id="Shape" fill="#FFFFFF"></path>
                <path d="M60.2335402,262.76395 L55.7482833,257.594931 L59.399248,249.449345 L57.009832,246.69633 L50.893062,252.002026 L46.8316914,247.323547 L64.6281783,231.883144 L72.9774664,241.50709 C75.7106347,244.657405 75.4702327,248.037638 72.3101824,250.780918 L70.5715743,252.289235 C68.0320007,254.491423 65.8294393,254.458096 64.2245126,253.830879 L60.2301701,262.76395 L60.2335402,262.76395 Z M61.6883092,242.638328 L65.8762465,247.466964 C66.0398846,247.657189 66.1567155,247.754173 66.2267391,247.800606 C66.3001329,247.763909 66.4334399,247.68415 66.6202944,247.520512 L68.1488316,246.195679 C68.3390562,246.032041 68.4356663,245.91521 68.4824736,245.845186 C68.4457767,245.771793 68.3656427,245.638486 68.2023791,245.451631 L64.0110716,240.622994 L61.6883092,242.638328 Z" id="Shape" fill="#FFFFFF"></path>
                <path d="M90.8338665,263.359712 C91.0375716,263.01933 91.2944497,262.738861 91.6082455,262.511939 C91.9182966,262.288388 92.2553087,262.13149 92.6159117,262.04499 C92.9761402,261.958116 93.3468536,261.941265 93.7302985,261.988073 C94.1141178,262.03825 94.4747208,262.161821 94.8151031,262.365152 L104.238711,268.028081 C104.579093,268.231786 104.859562,268.492034 105.079743,268.80583 C105.303295,269.119252 105.460193,269.456264 105.553433,269.816867 C105.647047,270.173725 105.666893,270.544439 105.61372,270.924888 C105.560173,271.304963 105.433232,271.665566 105.229901,272.002579 L103.881853,274.245208 L101.398822,272.753367 L102.747245,270.511112 L93.3232627,264.847809 L85.8685546,277.251731 L95.2921624,282.91466 L96.630475,280.685512 L99.113131,282.177353 L97.7748184,284.406501 C97.5714878,284.746884 97.3146096,285.026978 97.0008139,285.2539 C96.6903883,285.477451 96.3533762,285.637719 95.9897775,285.727964 C95.6258044,285.817834 95.2554656,285.838054 94.8750163,285.784507 C94.4945671,285.730959 94.1343386,285.604393 93.7973264,285.400687 L84.3733441,279.737758 C84.0329619,279.534428 83.7528673,279.277175 83.5259458,278.967124 C83.2990243,278.656698 83.1421265,278.319686 83.0518821,277.955713 C82.9620122,277.595484 82.9417915,277.221775 82.995339,276.841325 C83.048512,276.460876 83.1754532,276.100273 83.3791583,275.763261 L90.8338665,263.359712 Z" id="Path" fill="#FFFFFF"></path>
                <path d="M95.2921624,287.463577 C95.0787214,287.463577 94.8652804,287.450096 94.6480948,287.42014 C94.0474643,287.336635 93.4767905,287.13293 92.9461836,286.816139 L83.5225757,281.15321 C82.9919689,280.832674 82.5448661,280.422268 82.1876333,279.935098 C81.8405108,279.454668 81.593743,278.924061 81.4503256,278.356757 C81.3099039,277.792823 81.2799473,277.208669 81.3600813,276.618148 C81.4435854,276.017518 81.6472905,275.446844 81.967452,274.916237 L89.4225346,262.512314 C89.7426961,261.981707 90.1497319,261.534604 90.6402718,261.181116 C91.1274415,260.830623 91.6614185,260.583481 92.2287222,260.446803 C92.7795498,260.313496 93.3535938,260.283165 93.9340036,260.359929 C94.5447444,260.436693 95.1255287,260.640398 95.6591312,260.960934 L105.083114,266.623863 C105.617091,266.944025 106.067563,267.361171 106.421052,267.865192 C106.758438,268.342251 107.001836,268.862748 107.145253,269.410206 C107.292041,269.977509 107.325742,270.56466 107.242238,271.15855 C107.158734,271.759555 106.955029,272.333225 106.634867,272.860462 L104.439046,276.514798 L99.1299816,273.324415 L100.47803,271.085156 L93.8808306,267.120769 L88.124289,276.698282 L94.7214886,280.66267 L96.0598012,278.433521 L101.368865,281.623529 L99.1797845,285.264385 C98.8629931,285.791622 98.4525872,286.238724 97.9616729,286.595957 C97.4778733,286.946076 96.9472664,287.193218 96.3833328,287.333265 C96.0264744,287.42351 95.6591312,287.466947 95.2887923,287.466947 L95.2921624,287.463577 Z" id="Path" fill="#FFFFFF"></path>
                <polygon id="Path" fill="#FFFFFF" points="130.811368 278.423411 125.372367 297.945032 122.582281 297.167657 128.021656 277.646036"></polygon>
                <polygon id="Path" fill="#FFFFFF" points="126.869449 275.586891 120.544855 298.28504 126.511093 299.947633 132.835687 277.249485"></polygon>
                <polygon id="Path" fill="#FFFFFF" points="156.880379 302.897239 153.983947 302.944047 153.657045 282.681373 156.553477 282.634566 168.987352 298.148737 168.73347 282.437975 171.630276 282.391168 171.957178 302.653467 169.060746 302.700275 156.626871 287.186478"></polygon>
                <polygon id="Path" fill="#FFFFFF" points="152.36217 304.617874 151.97835 281.061842 157.330852 280.971598 167.25848 293.35867 167.055149 280.815074 173.248683 280.714719 173.632503 304.274122 168.279627 304.360996 158.351999 291.973924 158.555704 304.517894"></polygon>
                <path d="M216.422932,289.463932 C216.553243,289.837641 216.603046,290.21809 216.57646,290.598539 C216.549873,290.982359 216.452889,291.342588 216.289625,291.67623 C216.125987,292.013616 215.902436,292.307192 215.615226,292.56744 C215.328392,292.827688 215.00149,293.017913 214.627781,293.148224 L203.685372,296.915647 C203.311663,297.045584 202.931213,297.095761 202.550764,297.065804 C202.170689,297.035848 201.810086,296.942233 201.473074,296.778595 C201.139432,296.615331 200.842487,296.39178 200.582239,296.104571 C200.324986,295.821106 200.131766,295.490459 200.001455,295.11675 L195.289651,281.435177 C195.159339,281.061468 195.109536,280.681018 195.139493,280.300569 C195.16608,279.916749 195.26269,279.559516 195.429698,279.229244 C195.593336,278.898972 195.820258,278.602027 196.103722,278.341779 C196.387561,278.08153 196.714463,277.884566 197.088172,277.754254 L208.030207,273.986832 C208.403916,273.85652 208.784365,273.810088 209.168184,273.840044 C209.552004,273.873371 209.912232,273.966611 210.246249,274.126879 C210.579891,274.287147 210.876836,274.507328 211.133714,274.794538 C211.390592,275.078002 211.584187,275.408274 211.714498,275.781984 L216.426302,289.463932 L216.422932,289.463932 Z M198.029185,280.494164 L202.740989,294.175737 L213.683398,290.408315 L208.97122,276.726367 L198.029185,280.494164 Z" id="Shape" fill="#FFFFFF"></path>
                <path d="M202.751099,298.719786 C202.644379,298.719786 202.537658,298.716415 202.430938,298.709675 C201.836673,298.666238 201.272739,298.51608 200.748873,298.259202 C200.225006,298.00532 199.758057,297.651831 199.360757,297.208098 C198.953721,296.760621 198.646666,296.236754 198.446331,295.649604 L193.734527,281.967656 C193.534192,281.383876 193.454058,280.783245 193.497495,280.175874 C193.540932,279.581609 193.69446,279.010935 193.954708,278.487069 C194.208216,277.980052 194.555339,277.519469 194.982595,277.122543 C195.433068,276.705397 195.960305,276.391601 196.550825,276.187896 L207.493234,272.420474 C208.080384,272.216769 208.691125,272.140005 209.305236,272.190182 C209.885646,272.236989 210.439843,272.387147 210.9536,272.630545 C211.480836,272.884427 211.9549,273.234546 212.355196,273.678653 C212.762231,274.129126 213.069287,274.652993 213.269622,275.236773 L217.981426,288.918721 C218.181761,289.502875 218.261895,290.103506 218.218458,290.707507 C218.175021,291.301397 218.024863,291.865331 217.767985,292.389198 C217.510732,292.916435 217.157244,293.383758 216.716507,293.780684 C216.266034,294.188094 215.742168,294.494775 215.158388,294.69511 L204.215978,298.462533 C203.735549,298.629541 203.241639,298.713045 202.744359,298.713045 L202.751099,298.719786 Z M200.125026,281.510443 L203.762135,292.075776 L211.587557,289.382674 L207.950447,278.817715 L200.125026,281.510443 Z" id="Shape" fill="#FFFFFF"></path>
                <path d="M240.299492,269.47611 C239.985696,269.716138 239.641944,269.883146 239.264865,269.97339 C238.891156,270.06326 238.517447,270.086851 238.150478,270.043414 C237.783509,269.996607 237.433017,269.879776 237.099375,269.692921 C236.765733,269.502697 236.478523,269.252559 236.238121,268.938763 L232.717843,264.337048 C232.477441,264.023252 232.310432,263.6795 232.213822,263.305791 C232.117212,262.935451 232.096991,262.565112 232.150539,262.198144 C232.203712,261.8308 232.320543,261.480682 232.507397,261.1403 C232.694252,260.802913 232.944764,260.512708 233.258185,260.27268 L241.067131,254.292585 C241.380552,254.052183 241.724304,253.885549 242.101384,253.795305 C242.475092,253.705061 242.848801,253.681844 243.216145,253.725281 C243.583113,253.772089 243.933606,253.88892 244.267248,254.075774 C244.60089,254.262629 244.887725,254.516137 245.128127,254.829933 L245.865809,255.800902 L243.566263,257.562727 L242.828955,256.591758 L235.020384,262.571853 L238.541038,267.173568 L246.349609,261.193473 C246.66303,260.953445 247.006782,260.786437 247.380491,260.689452 C247.751205,260.596212 248.124914,260.572996 248.495252,260.619428 C248.865591,260.669606 249.216084,260.786437 249.549726,260.976661 C249.883368,261.166886 250.170203,261.417024 250.413975,261.73082 L253.927888,266.319054 C254.16829,266.63285 254.334924,266.976603 254.431908,267.350312 C254.528518,267.720651 254.548739,268.09436 254.501932,268.465073 C254.455125,268.835412 254.334924,269.185531 254.144699,269.522917 C253.954474,269.85656 253.704336,270.143394 253.390541,270.383796 L245.355048,276.533895 C245.041253,276.774297 244.6975,276.940931 244.327161,277.037916 C243.956822,277.134526 243.583113,277.154372 243.212775,277.10794 C242.842436,277.057762 242.491943,276.940931 242.154931,276.750707 C241.821289,276.560482 241.53408,276.310344 241.294052,275.996548 L240.432799,274.878791 L242.732345,273.116591 L243.593224,274.234723 L251.628716,268.084624 L248.114803,263.496015 L240.306232,269.47611 L240.299492,269.47611 Z" id="Path" fill="#FFFFFF"></path>
                <path d="M243.586484,278.782141 C243.386149,278.782141 243.189184,278.768661 242.992593,278.742074 C242.415179,278.665311 241.857986,278.478456 241.343855,278.184881 C240.816618,277.887936 240.359405,277.487266 239.982326,276.996726 L238.113781,274.574356 L243.03266,270.80993 L243.893539,271.928061 L249.316064,267.77682 L247.807748,265.804549 L241.307158,270.779973 C240.813248,271.157052 240.259425,271.424041 239.662165,271.570828 C239.094861,271.707506 238.520817,271.744577 237.956883,271.674179 C237.376099,271.600785 236.815536,271.417301 236.295039,271.120355 C235.767802,270.82341 235.310589,270.423115 234.93351,269.932575 L231.412857,265.330485 C231.039148,264.839945 230.772159,264.292862 230.622002,263.708707 C230.471844,263.128297 230.441887,262.540773 230.522021,261.960363 C230.602155,261.399425 230.78564,260.852341 231.065734,260.341581 C231.363054,259.801238 231.763349,259.337284 232.26063,258.960205 L240.0692,252.98011 C240.566481,252.600035 241.120304,252.336042 241.717564,252.189255 C242.284868,252.052577 242.858912,252.01588 243.422845,252.085904 C244.00363,252.159298 244.564193,252.342782 245.08469,252.639728 C245.611926,252.937047 246.06914,253.337343 246.446219,253.827883 L248.181457,256.113575 L243.262577,259.878002 L242.52527,258.906657 L237.336032,262.877785 L238.854459,264.860166 L245.355048,259.884742 C245.845588,259.510658 246.389676,259.244044 246.980196,259.093886 C247.55424,258.946724 248.13802,258.910028 248.715434,258.986791 C249.296218,259.063555 249.850041,259.25041 250.367168,259.540989 C250.894404,259.841305 251.354987,260.23823 251.728696,260.72877 L255.24261,265.320749 C255.616319,265.811289 255.883307,266.355002 256.033465,266.942527 C256.180252,267.516571 256.216949,268.103721 256.140185,268.681136 C256.063421,269.258176 255.876567,269.815744 255.582992,270.3295 C255.286047,270.856737 254.885751,271.31395 254.395211,271.691029 L246.359344,277.841128 C245.868805,278.214838 245.321722,278.481826 244.737567,278.631984 C244.360488,278.728968 243.976669,278.778771 243.593224,278.778771 L243.586484,278.782141 Z" id="Path" fill="#FFFFFF"></path>
                <polygon id="Path" fill="#FFFFFF" points="265.634191 240.597531 268.193611 237.233775 271.557366 239.793195 268.997947 243.156952 265.637561 240.597531"></polygon>
                <path d="M269.308372,245.467358 L263.324909,240.912076 L267.88019,234.925615 L273.866648,239.480523 L269.311742,245.467358 L269.308372,245.467358 Z M267.943473,240.284859 L268.680781,240.848793 L269.244714,240.111485 L268.507407,239.547551 L267.943473,240.284859 Z" id="Shape" fill="#FFFFFF"></path>
                <polygon id="Path" fill="#FFFFFF" points="273.719861 212.540139 279.32924 198.878037 282.008861 199.979318 277.500762 210.961424 282.860004 213.163986 286.707559 203.790178 289.38718 204.891459 285.539625 214.265267 293.565007 217.56237 292.463726 220.241992 273.716491 212.543135"></polygon>
                <polygon id="Path" fill="#FFFFFF" points="293.365046 222.386513 271.570847 213.436592 278.431665 196.727899 284.161245 199.077249 279.653147 210.059354 281.962429 211.007108 285.809984 201.63667 291.539564 203.986019 287.692009 213.359828 295.717391 216.656556"></polygon>
                <path d="M287.31493,177.79942 C286.921,177.769463 286.554031,177.662368 286.213649,177.485624 C285.873267,177.308879 285.583062,177.075218 285.34603,176.791378 C285.108998,176.507914 284.925514,176.184382 284.798573,175.820409 C284.672006,175.45681 284.625199,175.076361 284.655155,174.682431 L285.526144,163.723916 C285.556101,163.329986 285.663196,162.963017 285.84668,162.622635 C286.030165,162.282253 286.260456,161.991673 286.540551,161.748275 C286.82102,161.504503 287.141181,161.324389 287.505155,161.200818 C287.868753,161.077621 288.249202,161.034184 288.643132,161.064141 L291.249359,161.271216 L291.019068,164.157539 L288.412841,163.950838 L287.541851,174.909352 L301.967843,176.057441 L302.838832,165.098552 L300.245711,164.891851 L300.476002,162.005154 L303.069123,162.212229 C303.462679,162.242186 303.829647,162.348906 304.17003,162.52565 C304.510412,162.702769 304.800991,162.936056 305.044389,163.219896 C305.284791,163.50336 305.468275,163.827267 305.591846,164.190865 C305.715417,164.554839 305.75848,164.935288 305.728523,165.328843 L304.857534,176.287732 C304.827578,176.681288 304.720857,177.048631 304.544113,177.389014 C304.366994,177.729396 304.133333,178.019601 303.849868,178.263373 C303.566029,178.506771 303.242497,178.686885 302.878899,178.810456 C302.514926,178.934027 302.134476,178.977465 301.740921,178.947133 L287.31493,177.79942 Z" id="Path" fill="#FFFFFF"></path>
                <path d="M301.980949,180.606357 C301.857752,180.606357 301.734181,180.599617 301.61061,180.592877 L287.184619,179.444788 C286.567512,179.394985 285.983358,179.227977 285.449381,178.947882 C284.918774,178.670783 284.461561,178.303815 284.084482,177.853341 C283.717513,177.415974 283.437418,176.915699 283.243823,176.364871 C283.040118,175.784086 282.963355,175.17709 283.013532,174.556238 L283.884521,163.593979 C283.934324,162.973502 284.108072,162.382607 284.398277,161.842264 C284.675376,161.328134 285.032234,160.877661 285.462861,160.507322 C285.906594,160.123502 286.417354,159.833297 286.984658,159.643072 C287.558328,159.449478 288.162328,159.376084 288.776439,159.426261 L293.024664,159.763273 L292.534124,165.936589 L289.927897,165.729888 L289.317156,173.40478 L300.456156,174.29262 L301.066897,166.617353 L298.473776,166.410653 L298.964316,160.236963 L303.19906,160.573975 C303.816541,160.624152 304.400321,160.791161 304.934298,161.071255 C305.461535,161.348354 305.918748,161.711953 306.295827,162.155686 C306.676276,162.599793 306.963111,163.110179 307.15034,163.674113 C307.34356,164.248157 307.416954,164.852158 307.367151,165.466269 L306.496162,176.428154 C306.445985,177.042265 306.279351,177.62979 305.998882,178.163393 C305.725153,178.69063 305.358185,179.147843 304.914452,179.524922 C304.470345,179.902001 303.959959,180.189211 303.396025,180.379435 C302.938812,180.532963 302.461753,180.609727 301.974583,180.609727 L301.980949,180.606357 Z" id="Path" fill="#FFFFFF"></path>
                <path d="M291.913273,144.079847 C285.232569,97.184594 252.536402,56.3196132 208.053798,39.9378227 C148.000484,17.042709 78.3569288,43.2682525 47.929602,99.8076726 C41.2889654,111.737531 36.7306892,124.885502 34.0776549,138.276871 L33.0898349,144.076477 L33.0733587,144.183572 C32.8595433,145.441377 31.6650225,146.285779 30.4068439,146.072338 C29.1789964,145.861893 28.3447042,144.717549 28.5049722,143.496067 L29.2958273,137.449319 C31.5283454,123.370445 35.9697907,109.598627 42.5171873,96.9243456 C93.3932863,-0.103050854 231.630042,-0.0763519952 282.486295,96.9277158 C289.029947,109.598627 293.481503,123.377185 295.707655,137.452689 L296.49851,143.499437 C296.768494,146.546028 292.407183,147.123442 291.909903,144.079847 L291.913273,144.079847 Z" id="Path" fill="#FFFFFF"></path>
                <path d="M224.225137,152.872496 C224.225137,152.872496 215.772124,117.059704 231.246223,109.894823 C246.716577,102.733688 263.33502,105.166542 274.223507,100.154046 C285.112368,95.1385552 291.693092,88.9483893 291.693092,88.9483893 L290.985366,107.745809 L299.15117,109.894823 C299.15117,109.894823 288.692935,117.199751 281.101175,133.387572 C273.509416,149.575393 260.184705,158.889288 243.566263,160.320841 C226.947821,161.752395 224.225137,152.872496 224.225137,152.872496 Z" id="Path" fill="#F078A8"></path>
                <path d="M240.0692,162.64323 C225.139189,162.64323 222.279454,153.90675 222.155883,153.506454 C222.142777,153.459647 222.129296,153.41621 222.119186,153.369402 C221.758957,151.837869 213.456476,115.747603 230.335167,107.932289 C239.07464,103.888142 248.16161,102.793601 256.176882,101.832367 C262.600708,101.061358 268.667675,100.33079 273.315821,98.1915117 C283.717513,93.4029422 290.144708,87.4329576 290.207992,87.3764144 C290.848689,86.7757837 291.786332,86.6188858 292.587297,86.9858547 C293.384893,87.3498279 293.885543,88.1605296 293.852216,89.0348891 L293.211519,106.10044 L299.701998,107.809092 C300.516069,108.022533 301.13355,108.693188 301.280338,109.52411 C301.427125,110.355032 301.080003,111.196065 300.389502,111.676495 C300.292518,111.743148 290.284756,118.908028 283.059965,134.315105 C275.248024,150.97025 261.289356,160.974645 243.753117,162.486332 C242.451876,162.599793 241.223654,162.649596 240.072571,162.649596 L240.0692,162.64323 Z M226.307123,152.264751 C226.590962,152.999063 229.464178,159.365973 243.379408,158.168082 C259.310346,156.793072 272.011209,147.669776 279.139016,132.473146 C284.294927,121.47756 290.701902,114.472947 294.546087,110.922336 L290.434913,109.841276 C289.453834,109.584398 288.78655,108.680081 288.823246,107.6653 L289.350483,93.6631905 C286.260456,95.9859538 281.39812,99.2328795 275.131193,102.119202 C269.865566,104.545316 263.468327,105.312955 256.697753,106.127027 C248.621819,107.098371 240.272906,108.102667 232.157279,111.859979 C220.837791,117.099396 224.074979,142.690982 226.307123,152.264751 Z" id="Shape" fill="#000000"></path>
                <path d="M102.303138,152.971353 C102.303138,152.971353 110.756151,117.158186 95.2820521,109.99368 C79.8083277,102.829175 63.1932555,105.265024 52.3043938,100.252903 C41.4159066,95.2374122 33.2635833,89.5744832 33.2635833,89.5744832 L35.5459043,107.844666 L27.380475,109.99368 C27.380475,109.99368 37.8387101,117.298608 45.4304699,133.486429 C53.0218552,149.67425 66.3469401,158.988145 82.9650079,160.419698 C99.5834501,161.851251 102.306508,152.971353 102.306508,152.971353 L102.303138,152.971353 Z" id="Path" fill="#F078A8"></path>
                <path d="M86.4624448,162.742836 C85.3076166,162.742836 84.0831392,162.689663 82.7781534,162.579572 C65.2422892,161.067885 51.2836216,151.063115 43.4713061,134.408345 C36.2101927,118.924505 26.2424974,111.839758 26.1421427,111.769735 C25.4516423,111.285935 25.1045198,110.444902 25.2513073,109.61735 C25.3980949,108.786428 26.015576,108.119143 26.8296475,107.902332 L33.1632286,106.233747 L31.1179395,89.8422207 C31.0108445,88.9944477 31.4148846,88.1635253 32.145452,87.7231626 C32.8763939,87.2794298 33.7975603,87.3093865 34.5015412,87.7965564 C34.5816752,87.8530995 42.6437541,93.4160482 53.2154499,98.2847517 C57.8639705,100.424031 63.9309376,101.154598 70.3543887,101.925607 C78.3734049,102.889837 87.457005,103.981007 96.1964783,108.025529 C113.078539,115.840843 104.776058,151.931109 104.412459,153.462642 C104.402349,153.50945 104.388869,153.555882 104.375388,153.59932 C104.252191,153.99999 101.389086,162.736096 86.4624448,162.736096 L86.4624448,162.742836 Z M31.9855585,111.022317 C35.8263733,114.572928 42.2333482,121.577165 47.3926294,132.572751 C54.5204358,147.769757 67.2209249,156.893052 83.1522368,158.268062 C97.0940539,159.469324 100.007336,152.925295 100.224148,152.378212 C102.456666,142.810809 105.70022,117.205742 94.3777362,111.96333 C86.2621098,108.205643 77.9128217,107.201347 69.8372623,106.230377 C63.0663143,105.415931 56.6694498,104.648666 51.4034481,102.222553 C44.9331898,99.2426154 39.4537471,96.0657134 35.9900114,93.9200688 L37.6949183,107.581796 C37.8285998,108.656491 37.1478353,109.667527 36.100102,109.944252 L31.9885541,111.025687 L31.9855585,111.022317 Z" id="Shape" fill="#000000"></path>
                <path d="M236.01457,139.886666 C216.706771,100.907081 167.869221,96.4922211 163.380968,96.1683149 L163.380968,96.1450985 C163.380968,96.1450985 163.324051,96.1450985 163.21396,96.1552088 C163.10724,96.1484686 163.047326,96.1450985 163.047326,96.1450985 L163.047326,96.1683149 C158.558699,96.4955912 109.721524,100.907081 90.4133503,139.886666 C67.665032,185.81432 84.9208016,217.102536 94.6649454,226.272639 C104.405719,235.442742 116.011668,241.886416 135.493215,246.28143 C153.429749,250.325951 161.972632,244.822916 163.21396,243.92197 C164.458658,244.822916 172.998171,250.325951 190.934705,246.28143 C210.416253,241.886416 222.022576,235.442742 231.763349,226.272639 C241.504123,217.102536 258.763263,185.81769 236.01457,139.886666 Z" id="Path" fill="#F078A8"></path>
                <path d="M178.694425,250.00916 C170.602389,250.00916 165.57679,247.906578 163.21396,246.588486 C159.797032,248.497473 150.786825,252.048084 134.99631,248.487362 C116.535534,244.32264 104.008419,238.172541 93.116562,227.918008 C87.6371193,222.762095 80.8261043,212.003541 78.133003,197.270489 C74.7962085,179.007047 78.2464637,159.361854 88.3912775,138.882744 C107.836128,99.625686 155.782468,94.4735178 162.590113,93.9361705 C162.780338,93.8961034 162.973933,93.8792528 163.170523,93.8893632 L163.21733,93.8893632 L163.264138,93.8893632 C163.464473,93.8792528 163.667803,93.8961034 163.864768,93.9395406 C170.742437,94.4832537 218.615383,99.665753 238.043758,138.886114 C248.188197,159.365224 251.638827,179.010417 248.301658,197.273859 C245.608556,212.006911 238.797916,222.765465 233.318473,227.921378 C222.422871,238.175911 209.899126,244.32601 191.438725,248.490732 C186.556543,249.592014 182.321799,250.01253 178.701165,250.01253 L178.694425,250.00916 Z M163.21396,241.663239 C163.677914,241.663239 164.145237,241.806656 164.538792,242.093491 C165.383195,242.704232 173.27864,247.946645 190.437425,244.079242 C208.053798,240.108115 219.950326,234.288288 230.214966,224.631015 C235.170542,219.965642 241.353966,210.118144 243.850102,196.463157 C247.010152,179.180421 243.689834,160.483356 233.989127,140.894707 C226.163706,125.094075 212.475397,113.23087 193.30727,105.635738 C178.521051,99.7758437 165.646813,98.6011688 163.21733,98.4244246 C163.21733,98.4244246 163.21396,98.4244246 163.21059,98.4244246 C160.781482,98.6011688 147.907244,99.7758437 133.12065,105.635738 C113.952898,113.23087 100.264215,125.094075 92.4391676,140.894707 C82.7350907,160.483356 79.4177681,179.177051 82.5781929,196.463157 C85.0743293,210.118144 91.2577529,219.969012 96.2133289,224.631015 C106.477969,234.291658 118.371127,240.108115 135.990495,244.079242 C153.149655,247.950015 161.04847,242.704232 161.889128,242.093491 C162.283058,241.806656 162.750381,241.663239 163.21396,241.663239 Z" id="Shape" fill="#000000"></path>
                <path d="M161.562226,271.688408 C177.120578,271.688408 189.733444,260.057367 189.733444,245.709633 C189.733444,231.361898 177.120578,219.730857 161.562226,219.730857 C146.0035,219.730857 133.391008,231.361898 133.391008,245.709633 C133.391008,260.057367 146.0035,271.688408 161.562226,271.688408 Z" id="Path" fill="#F078A8"></path>
                <path d="M161.562226,273.529244 C145.010438,273.529244 131.54568,261.048932 131.54568,245.708509 C131.54568,230.368086 145.010438,217.887774 161.562226,217.887774 C178.114015,217.887774 191.578773,230.368086 191.578773,245.708509 C191.578773,261.048932 178.114015,273.529244 161.562226,273.529244 Z M161.562226,221.575063 C147.042621,221.575063 135.232967,232.400645 135.232967,245.708509 C135.232967,259.016748 147.045991,269.845326 161.562226,269.845326 C176.078462,269.845326 187.891486,259.020118 187.891486,245.708509 C187.891486,232.397275 176.081458,221.575063 161.562226,221.575063 Z" id="Shape" fill="#000000"></path>
                <path d="M160.874722,261.476563 C170.782878,261.476563 178.814626,254.070532 178.814626,244.934879 C178.814626,235.798852 170.782878,228.393195 160.874722,228.393195 C150.96694,228.393195 142.934817,235.798852 142.934817,244.934879 C142.934817,254.070532 150.96694,261.476563 160.874722,261.476563 Z" id="Path" fill="#000000"></path>
                <path d="M191.705714,203.494731 C180.012517,192.819681 162.953712,193.617276 162.953712,193.617276 C162.953712,193.617276 145.894907,192.81631 134.202084,203.494731 C117.727059,218.538208 112.761373,238.353404 120.019491,248.668226 C127.277609,258.983047 140.558882,255.248951 149.435407,251.341107 C156.906966,248.050744 169.247226,247.677035 176.472017,251.341107 C185.12162,255.726011 198.629815,258.983047 205.887933,248.668226 C213.146051,238.353404 208.180364,218.534838 191.705714,203.494731 Z" id="Path" fill="#F078A8"></path>
                <path d="M192.012769,257.68555 C191.899309,257.68555 191.788844,257.68555 191.675383,257.68555 C184.984943,257.59568 178.667838,254.882731 175.497678,253.27743 C169.183943,250.073941 157.651388,250.097157 150.313136,253.327607 C131.595857,261.563437 122.548954,256.020335 118.257666,249.917043 C109.901638,238.040732 116.268546,216.950506 132.750311,201.900663 C144.620252,191.061975 161.352155,191.398987 162.960452,191.45553 C164.572119,191.398987 181.300652,191.061975 193.170593,201.900663 C209.655354,216.950506 216.019266,238.044102 207.663238,249.917043 C204.082671,255.005928 198.676623,257.68892 192.015765,257.68892 L192.012769,257.68555 Z M163.334161,246.573507 C168.593423,246.573507 173.719003,247.521261 177.453097,249.413023 C181.821148,251.629065 196.65455,258.032672 204.119368,247.424276 C210.229398,238.737973 206.665308,220.083971 190.2472,205.094041 C179.38193,195.173149 163.21396,195.77378 163.053692,195.78052 C162.987039,195.78052 162.920385,195.78052 162.853732,195.78052 C162.696834,195.77378 146.528864,195.173149 135.663594,205.094041 C119.245486,220.083971 115.678026,238.737973 121.791426,247.424276 C126.683718,254.378711 135.69355,255.029519 148.564418,249.36322 C152.792422,247.50104 158.125077,246.573507 163.330791,246.573507 L163.334161,246.573507 Z" id="Shape" fill="#000000"></path>
                <path d="M137.729103,233.776029 C141.603245,237.056282 146.972597,226.918579 148.958347,223.141046 C150.947093,219.363513 154.721255,216.283222 154.721255,216.283222 C154.721255,216.283222 146.275356,216.083261 142.100525,220.060754 C137.926068,224.038622 133.851592,230.495777 137.729103,233.776029 Z" id="Path" fill="#000000"></path>
                <path d="M139.380837,235.775635 C138.470156,235.775635 137.608902,235.448733 136.854744,234.811406 C135.573349,233.726601 134.869368,232.254981 134.819191,230.553069 C134.70573,226.66245 138.022678,222.077211 141.166253,219.080423 C145.694572,214.768913 154.387613,214.922441 154.754581,214.929181 C155.321885,214.942662 155.822535,215.306261 156.00602,215.843608 C156.189504,216.380955 156.0195,216.974846 155.582133,217.332079 C155.548807,217.362035 151.991456,220.291795 150.159608,223.769012 C147.266547,229.265308 143.815917,234.98141 140.145106,235.695501 C139.888228,235.745678 139.63135,235.768895 139.380837,235.768895 L139.380837,235.775635 Z M151.117472,217.882532 C148.527721,218.226284 145.127268,219.057207 143.038542,221.042583 C140.23535,223.709099 137.445639,227.660006 137.528768,230.469939 C137.555729,231.407582 137.909218,232.14826 138.606833,232.739155 C138.940475,233.02262 139.24753,233.109494 139.62798,233.0361 C141.546702,232.662391 144.27987,229.121516 147.760457,222.507838 C148.691359,220.738898 149.969384,219.130601 151.117472,217.879162 L151.117472,217.882532 Z" id="Shape" fill="#000000"></path>
                <path d="M186.926882,233.776029 C183.05274,237.056282 177.683388,226.918579 175.698013,223.141046 C173.708892,219.363513 169.934731,216.283222 169.934731,216.283222 C169.934731,216.283222 178.381004,216.083261 182.55546,220.060754 C186.730292,224.035252 190.804768,230.495777 186.926882,233.776029 Z" id="Path" fill="#000000"></path>
                <path d="M185.278518,235.773763 C185.02838,235.773763 184.771128,235.747176 184.51425,235.700369 C180.843439,234.986278 177.393184,229.270176 174.499747,223.77388 C172.671269,220.296663 169.113919,217.363533 169.077222,217.336947 C168.63686,216.976343 168.469851,216.382453 168.653336,215.845106 C168.83682,215.307758 169.33747,214.94416 169.904774,214.930679 C170.271743,214.917573 178.964783,214.767415 183.493103,219.081921 C186.636677,222.075339 189.956996,226.663948 189.840165,230.554941 C189.789987,232.256478 189.086006,233.728099 187.804611,234.812903 C187.050453,235.450231 186.189574,235.777133 185.278518,235.777133 L185.278518,235.773763 Z M173.542258,217.88066 C174.689972,219.132098 175.967997,220.740396 176.899274,222.509336 C180.37986,229.123014 183.116024,232.663889 185.031376,233.037598 C185.411825,233.110992 185.718881,233.024117 186.052523,232.740653 C186.750138,232.149758 187.100631,231.40908 187.130587,230.471437 C187.214091,227.661504 184.42438,223.710597 181.621188,221.044081 C179.535457,219.055335 176.135005,218.227782 173.542258,217.88403 L173.542258,217.88066 Z" id="Shape" fill="#000000"></path>
                <path d="M146.498908,189.623681 C150.933987,180.189585 163.971489,177.690452 172.814687,182.142009 C175.814843,183.586669 178.484354,185.6724 180.356269,188.332175 C174.740149,185.742424 169.13077,183.970488 163.073913,184.050622 C157.033907,184.100799 151.544354,186.016152 146.495538,189.620311 L146.498908,189.623681 Z" id="Path" fill="#000000"></path>
                <path d="M153.846895,176.929553 C157.160848,169.441142 168.793758,169.661697 173.004911,176.198611 C166.614413,173.43249 159.823618,172.885032 153.846895,176.929553 Z" id="Path" fill="#000000"></path>
                <polygon id="Path" fill="#F078A8" points="101.769535 124.712503 108.893972 152.620112 77.5192664 124.308837 101.095137 121.198588"></polygon>
                <path d="M84.4736988,139.487494 C85.2042662,130.944608 79.7150876,125.311636 72.6269738,121.277225 C70.1443178,119.838931 67.504764,118.574386 64.8285133,117.389601 C73.8683018,118.874702 83.7060601,121.137177 89.4622272,129.139346 C91.4947847,131.959015 92.8095065,135.329512 93.4801606,138.700008 L84.4770689,139.490864 L84.4736988,139.487494 Z" id="Path" fill="#000000"></path>
                <path d="M86.5223581,143.698649 C85.2342228,141.519677 82.0741725,140.361853 79.4278784,139.784439 C77.8195817,139.433946 76.1176705,139.236981 74.3858026,139.160217 C72.6539348,139.083453 70.8883657,139.130261 69.1130607,139.297269 C70.6614442,138.409429 72.2899617,137.618574 73.9918729,136.934439 C79.7484144,134.7154 86.1819758,133.363981 92.1085212,136.594056 L86.5223581,143.702019 L86.5223581,143.698649 Z" id="Path" fill="#000000"></path>
                <polygon id="Path" fill="#F078A8" points="223.600916 123.024446 216.476479 150.935425 247.851185 122.62078 224.27494 119.510531"></polygon>
                <path d="M231.896656,137.02019 C234.793463,122.167311 247.26366,117.705644 260.548678,115.713527 C255.399507,118.016069 250.026785,120.658994 246.022332,124.546618 C242.248171,128.140666 240.496457,132.758857 240.900123,137.814415 L231.896656,137.02356 L231.896656,137.02019 Z" id="Path" fill="#000000"></path>
                <path d="M233.268296,134.915361 C240.659721,130.88769 249.566202,133.914435 256.263756,137.618574 C252.819867,137.298037 249.272627,137.395022 245.948939,138.105743 C243.306015,138.683158 240.139224,139.844352 238.854459,142.019953 L233.268296,134.911991 L233.268296,134.915361 Z" id="Path" fill="#000000"></path>
                <path d="M184.787978,156.032173 C184.541211,160.286766 184.320655,164.671669 186.646788,168.288934 C189.189357,171.932785 193.971559,174.125237 198.016079,176.110988 C192.332931,175.263215 186.119551,174.492581 181.818153,169.987476 C178.444287,166.453715 176.895903,161.364456 175.781142,156.823029 L184.784608,156.032173 L184.787978,156.032173 Z" id="Path" fill="#000000"></path>
                <path d="M185.034746,157.626241 C181.544424,165.458406 184.884589,172.579474 190.257311,178.713097 C192.132596,180.888698 194.211586,182.944473 196.350864,184.94333 C188.298521,180.578273 179.745528,175.212663 176.92923,165.768831 C175.9313,162.438402 175.797993,158.824507 176.268312,155.420683 L185.034746,157.626241 Z" id="Path" fill="#000000"></path>
                <path d="M211.393962,143.765677 C211.223958,143.81885 179.548938,154.741042 179.198445,154.804326 C179.084984,156.146009 180.136088,161.148019 180.610152,162.416309 C183.082697,169.043467 192.653467,173.074508 202.511072,169.563964 C212.368676,166.05342 214.667848,157.864397 213.709984,151.170585 C212.952456,145.864514 211.55086,144.069362 211.393962,143.765677 Z" id="Path" fill="#000000"></path>
                <path d="M207.596585,144.298156 C207.459533,144.344589 181.350829,155.176537 181.07036,155.233454 C180.98049,156.378173 181.410743,158.530558 181.787822,159.611618 C183.760091,165.271177 191.111449,169.135584 199.087028,167.537022 C207.336336,165.888658 209.905866,160.456021 210.403147,154.526103 C210.780226,150.024369 207.716785,144.558405 207.593214,144.298156 L207.596585,144.298156 Z" id="Path" stroke="#000000" stroke-width="36.7781143" fill="#FFFFFF"></path>
                <path d="M168.766797,153.337199 C168.766797,153.337199 172.947994,163.881937 192.256167,154.228035 C210.836769,144.937731 210.806812,143.936804 215.805451,143.996717 C220.804464,144.056631 224.391771,144.82427 224.391771,144.82427 L210.760005,134.769697 C210.760005,134.769697 199.116985,139.969047 190.894638,146.058858 C182.675661,152.149044 180.603411,153.784302 176.752486,154.05129 C172.901561,154.318279 168.766797,153.337199 168.766797,153.337199 Z" id="Path" fill="#000000"></path>
                <path d="M141.686749,156.681484 C141.933891,160.936076 142.154073,165.32098 139.828315,168.938244 C137.285371,172.58247 132.503543,174.774922 128.459023,176.760298 C134.141797,175.9129 140.355551,175.141891 144.656949,170.636786 C148.030441,167.103026 149.578824,162.014141 150.693585,157.472339 L141.690119,156.681484 L141.686749,156.681484 Z" id="Path" fill="#000000"></path>
                <path d="M141.439981,158.275926 C144.930304,166.107716 141.590139,173.229159 136.217417,179.362407 C134.342132,181.538383 132.263141,183.593783 130.124238,185.59264 C138.176206,181.227957 146.729199,175.861974 149.545497,166.418142 C150.543428,163.087712 150.676735,159.473817 150.206416,156.069994 L141.439981,158.275926 Z" id="Path" fill="#000000"></path>
                <path d="M115.080765,144.411991 C115.250769,144.465539 146.92579,155.387731 147.276282,155.451015 C147.389743,156.792323 146.33864,161.794708 145.864951,163.062623 C143.39203,169.690156 133.821635,173.721197 123.96403,170.210653 C114.106426,166.700109 111.807254,158.511086 112.764743,151.816899 C113.522272,146.511203 114.923868,144.715677 115.080765,144.411991 Z" id="Path" fill="#000000"></path>
                <path d="M118.878143,144.947466 C119.015195,144.994274 145.123898,155.826222 145.404367,155.882765 C145.494612,157.027483 145.063985,159.179868 144.686906,160.260928 C142.714636,165.920861 135.363278,169.784894 127.387699,168.186707 C119.138391,166.537968 116.569236,161.105331 116.071955,155.175413 C115.694876,150.673679 118.758317,145.207715 118.881513,144.947466 L118.878143,144.947466 Z" id="Path" stroke="#000000" stroke-width="36.7781143" fill="#FFFFFF"></path>
                <path d="M157.707931,153.986509 C157.707931,153.986509 153.526734,164.531622 134.21856,154.877345 C115.637959,145.587041 115.667915,144.586114 110.669277,144.646028 C105.666893,144.706315 102.082957,145.47358 102.082957,145.47358 L115.714723,135.419381 C115.714723,135.419381 127.357743,140.618357 135.580089,146.708543 C143.799066,152.798354 145.871691,154.433612 149.722616,154.700601 C153.573541,154.970959 157.707931,153.986509 157.707931,153.986509 Z" id="Path" fill="#000000"></path>
                <path d="M163.7045,113.481008 C197.123371,113.481008 224.215027,99.4639201 224.215027,82.1729455 C224.215027,64.8819708 197.123371,50.8648829 163.7045,50.8648829 C130.285629,50.8648829 103.194348,64.8819708 103.194348,82.1729455 C103.194348,99.4639201 130.285629,113.481008 163.7045,113.481008 Z" id="Path" fill="#B92025"></path>
                <path d="M163.7045,116.010098 C147.146346,116.010098 131.53557,112.653081 119.755872,106.556155 C107.445569,100.185875 100.664885,91.5265329 100.664885,82.1692009 C100.664885,72.8122433 107.445569,64.1525266 119.755872,57.7822463 C131.53894,51.6856949 147.146346,48.3283041 163.7045,48.3283041 C180.263029,48.3283041 195.873431,51.6856949 207.653128,57.7822463 C219.963432,64.1525266 226.74449,72.8122433 226.74449,82.1692009 C226.74449,91.5265329 219.963432,100.185875 207.653128,106.556155 C195.87006,112.653081 180.263029,116.010098 163.7045,116.010098 Z M163.7045,53.3939725 C147.940571,53.3939725 133.157347,56.5510283 122.082005,62.2806108 C111.533526,67.736839 105.727181,74.80099 105.727181,82.172571 C105.727181,89.5441521 111.536896,96.6053074 122.082005,102.064531 C133.157347,107.794488 147.940571,110.95117 163.7045,110.95117 C179.468804,110.95117 194.251653,107.794488 205.32737,102.064531 C215.875849,96.6086775 221.682193,89.5441521 221.682193,82.172571 C221.682193,74.80099 215.872479,67.7398346 205.32737,62.2806108 C194.251653,56.5510283 179.468804,53.3939725 163.7045,53.3939725 Z" id="Shape" fill="#000000"></path>
                <path d="M199.517655,74.7867605 C203.628828,77.0893031 206.441756,81.7644117 206.441756,87.1603522 C206.441756,94.8386143 200.748873,101.062481 193.727787,101.062481 C186.706701,101.062481 181.013817,94.8386143 181.013817,87.1603522 C181.013817,81.6775375 183.916989,76.9391454 188.131513,74.6762954 L164.071843,44.4964749 L140.011799,74.6762954 C144.226323,76.9391454 147.129495,81.6775375 147.129495,87.1603522 C147.129495,94.8386143 141.436611,101.062481 134.415525,101.062481 C127.394439,101.062481 121.701556,94.8386143 121.701556,87.1603522 C121.701556,81.7644117 124.517854,77.0893031 128.625657,74.7867605 L90.1699526,36.4774559 L104.068707,114.116838 C104.068707,114.116838 114.747123,119.202353 131.869212,121.745297 C148.731426,124.248175 160.230654,123.971076 164.078209,123.971076 C167.925764,123.971076 179.40215,124.251545 196.26399,121.745297 C213.386453,119.202353 224.064869,114.116838 224.064869,114.116838 L237.963624,36.4774559 L199.507545,74.7867605 L199.517655,74.7867605 Z" id="Path" fill="#FFCF00"></path>
                <path d="M161.211734,126.235798 C155.769362,126.235798 145.484501,126.045573 131.54905,123.976693 C114.28991,121.413902 103.557946,116.368454 103.107474,116.154638 C102.4503,115.841217 101.982976,115.230476 101.856035,114.513014 L87.9572808,36.8736325 C87.7839068,35.9026628 88.2609662,34.9313186 89.1353254,34.4741054 C90.0096846,34.0168921 91.0776386,34.1805303 91.7782494,34.8747755 L130.234328,73.1837057 C130.734604,73.6843561 130.975006,74.3883372 130.878396,75.0926928 C130.781411,75.7933038 130.360895,76.4107851 129.743788,76.7579077 C126.183068,78.7533946 123.974141,82.7376282 123.974141,87.1625989 C123.974141,93.5796864 128.662354,98.8022527 134.429006,98.8022527 C140.195283,98.8022527 144.883871,93.5796864 144.883871,87.1625989 C144.883871,82.721152 142.557738,78.6032369 138.957325,76.6710334 C138.366431,76.3538675 137.946289,75.7899336 137.812608,75.1361299 C137.679301,74.4785816 137.842564,73.7978169 138.25971,73.27395 L162.319755,43.0937551 C162.747011,42.5564078 163.397445,42.2429864 164.084949,42.2429864 C164.772454,42.2429864 165.423262,42.5564078 165.850518,43.0937551 L189.910188,73.27395 C190.327334,73.7978169 190.490973,74.4819517 190.357665,75.1361299 C190.223984,75.7933038 189.803468,76.3538675 189.212948,76.6710334 C185.61216,78.6032369 183.286402,82.721152 183.286402,87.1625989 C183.286402,93.5796864 187.97499,98.8022527 193.741267,98.8022527 C199.507545,98.8022527 204.196132,93.5796864 204.196132,87.1625989 C204.196132,82.7376282 201.983835,78.7533946 198.426485,76.7579077 C197.809004,76.4107851 197.388487,75.7966739 197.291877,75.0926928 C197.194893,74.3917073 197.431924,73.6843561 197.935945,73.1837057 L236.391649,34.8747755 C237.092634,34.1771601 238.160588,34.0168921 239.034573,34.4741054 C239.908932,34.9313186 240.386366,35.9026628 240.212618,36.8736325 L226.310493,114.513014 C226.183926,115.230476 225.716603,115.841217 225.059055,116.154638 C224.611952,116.368454 213.876993,121.413902 196.617853,123.976693 C180.917207,126.309192 169.864707,126.252649 165.142793,126.229058 C164.749238,126.229058 164.398745,126.226062 164.09843,126.226062 C163.798115,126.226062 163.447622,126.226062 163.054067,126.229058 C162.52346,126.229058 161.909349,126.235798 161.221844,126.235798 L161.211734,126.235798 Z M106.09078,112.530634 C109.131004,113.815399 118.648226,117.492952 132.212964,119.508285 C147.573602,121.787611 158.398806,121.734063 163.023736,121.710847 C163.427776,121.710847 163.781264,121.707477 164.09169,121.707477 C164.402115,121.707477 164.755978,121.707477 165.159644,121.710847 C169.778207,121.737433 180.589931,121.787611 195.946824,119.508285 C209.508567,117.492952 219.025789,113.815399 222.069383,112.530634 L234.493148,43.1405623 L203.028198,74.4853218 C206.588918,77.5154363 208.710971,82.1471079 208.710971,87.1625989 C208.710971,96.0724536 201.993571,103.323834 193.737897,103.323834 C185.482223,103.323834 178.764823,96.0758237 178.764823,87.1625989 C178.764823,81.9434027 181.040404,77.1716838 184.838156,74.1580455 L164.081579,48.1260967 L143.325377,74.1580455 C147.122755,77.1716838 149.39871,81.9400326 149.39871,87.1625989 C149.39871,96.0724536 142.681309,103.323834 134.425636,103.323834 C126.169588,103.323834 119.452187,96.0758237 119.452187,87.1625989 C119.452187,82.1471079 121.574615,77.5154363 125.135335,74.4853218 L93.6703852,43.1405623 L106.09415,112.530634 L106.09078,112.530634 Z" id="Shape" fill="#000000"></path>
                <polygon id="Path" fill="#B92025" points="175.567701 74.2771231 163.831441 101.587472 152.575611 74.2771231 163.831441 59.5710324"></polygon>
                <path d="M163.831441,103.396478 L163.817961,103.396478 C163.090764,103.389738 162.436586,102.949376 162.159487,102.278721 L150.900286,74.9683727 C150.653518,74.3744822 150.743763,73.6937175 151.137318,73.1795866 L162.396519,58.4734959 C162.733531,58.0331332 163.257397,57.7695147 163.814591,57.7661446 L163.831441,57.7661446 C164.381894,57.7661446 164.902765,58.0162826 165.243148,58.4469093 L176.979408,73.1530001 C177.396554,73.6734968 177.489794,74.3812225 177.226175,74.9949592 L165.489915,102.305308 C165.206451,102.969222 164.552273,103.399849 163.828071,103.399849 L163.831441,103.396478 Z M154.641121,74.5512264 L163.864768,96.9292136 L173.478601,74.5579667 L163.861398,62.5079068 L154.641121,74.5512264 Z" id="Shape" fill="#000000"></path>
                <path d="M224.562149,124.961517 C224.562149,124.961517 203.131548,134.922476 162.309644,134.922476 C121.48774,134.922476 103.120954,124.961517 103.120954,124.961517 L103.120954,110.581954 C103.120954,110.581954 133.62467,120.312995 162.763487,120.312995 C191.902679,120.312995 224.562149,110.581954 224.562149,110.581954 L224.562149,124.961517 Z" id="Path" fill="#FFCF00"></path>
                <path d="M162.309644,137.180832 C121.38439,137.180832 102.813899,127.363291 102.04289,126.946145 C101.315692,126.552215 100.861849,125.787946 100.861849,124.960394 L100.861849,110.581205 C100.861849,109.860373 101.205227,109.182979 101.789382,108.755722 C102.373536,108.32884 103.120954,108.208639 103.808084,108.42882 C104.11177,108.52543 134.328651,118.052766 162.766857,118.052766 C191.205064,118.052766 223.597546,108.512324 223.921452,108.41534 C224.605212,108.212009 225.346264,108.341946 225.916938,108.769202 C226.487612,109.196459 226.824624,109.867113 226.824624,110.581205 L226.824624,124.960394 C226.824624,125.838124 226.313863,126.639089 225.516268,127.009428 C224.622063,127.423204 203.161505,137.180832 162.313014,137.180832 L162.309644,137.180832 Z M105.380059,123.532211 C110.008358,125.597721 128.318602,132.658877 162.309644,132.658877 C196.300687,132.658877 217.100326,125.504481 222.30267,123.452077 L222.30267,113.557772 C213.599894,115.913862 186.866969,122.567981 162.763487,122.567981 C138.66038,122.567981 113.79263,116.017212 105.380059,113.607949 L105.380059,123.532211 Z" id="Shape" fill="#000000"></path>
            </g>
        </g>
    </g>
</svg>