<?xml version="1.0" standalone="no"?>
<!DOCTYPE svg PUBLIC "-//W3C//DTD SVG 20010904//EN"
 "http://www.w3.org/TR/2001/REC-SVG-20010904/DTD/svg10.dtd">
<svg version="1.0" xmlns="http://www.w3.org/2000/svg"
 width="680.000000pt" height="680.000000pt" viewBox="0 0 680.000000 680.000000"
 preserveAspectRatio="xMidYMid meet">

<g transform="translate(0.000000,680.000000) scale(0.100000,-0.100000)"
fill="#000000" stroke="none">
<path d="M145 6648 c-3 -7 -4 -1473 -3 -3258 l3 -3245 3255 0 3255 0 0 3255 0
3255 -3253 3 c-2597 2 -3254 0 -3257 -10z m1804 -326 c0 -4 -32 -23 -72 -42
-235 -116 -561 -355 -772 -569 l-80 -81 -112 0 -113 0 0 -133 0 -133 -40 -54
c-22 -30 -59 -83 -83 -119 l-42 -65 -3 589 c-1 325 0 596 3 603 3 10 141 12
660 12 360 0 655 -4 654 -8z m4198 -582 c2 -554 1 -584 -15 -560 -9 13 -43 60
-74 105 l-58 80 0 123 0 122 -103 0 -102 0 -90 91 c-223 225 -542 461 -782
579 -40 19 -72 38 -72 43 -1 4 290 6 647 5 l647 -3 2 -585z m-2698 428 c37
-175 51 -231 55 -227 2 2 18 88 37 192 l33 187 79 0 79 0 -6 -27 c-3 -16 -24
-129 -47 -253 -22 -124 -41 -226 -42 -226 -1 -1 -62 -3 -136 -5 l-134 -4 -39
180 c-21 99 -40 184 -41 189 -2 5 -18 -77 -37 -182 l-34 -192 -83 0 c-61 0
-81 3 -78 13 2 6 22 118 45 247 23 129 43 241 45 248 3 9 40 12 138 12 l134 0
32 -152z m-519 47 c0 -60 -2 -65 -22 -66 -22 -2 -22 -2 -2 -6 21 -4 22 -10 26
-191 3 -103 2 -190 -1 -194 -7 -8 -144 -38 -149 -33 -2 2 -6 120 -9 263 l-6
260 64 15 c103 24 99 26 99 -48z m1305 -20 c105 -31 201 -64 215 -74 50 -36
41 -72 -60 -265 -75 -142 -97 -176 -121 -186 -25 -11 -52 -6 -226 45 -294 86
-293 83 -156 339 84 157 112 194 148 196 6 0 96 -25 200 -55z m-1674 -44 c16
-16 29 -38 29 -48 0 -10 3 -28 6 -41 6 -20 -1 -26 -60 -52 -74 -34 -86 -36
-86 -16 0 29 -20 25 -140 -27 -86 -37 -114 -53 -97 -55 22 -3 26 -12 49 -115
29 -132 26 -130 151 -73 69 32 77 38 77 63 0 25 7 31 68 56 37 15 70 27 73 27
3 0 12 -32 19 -70 19 -102 15 -106 -216 -207 -104 -45 -201 -83 -215 -83 -20
0 -69 31 -69 44 0 1 -18 85 -40 185 -22 100 -40 195 -40 212 0 37 33 70 92 93
24 8 102 42 173 75 151 69 184 74 226 32z m2389 -287 c85 -53 160 -105 167
-113 21 -27 15 -93 -12 -125 l-23 -29 -64 40 c-46 29 -62 44 -60 59 1 15 -23
35 -107 87 -60 37 -112 67 -117 67 -4 0 2 -11 15 -23 19 -21 20 -25 6 -37 -21
-18 -11 -28 107 -102 55 -34 106 -71 114 -82 26 -38 18 -92 -21 -134 -40 -42
-42 -38 -25 62 5 33 8 61 7 62 -1 2 -29 -19 -61 -47 -32 -27 -62 -47 -67 -43
-14 8 -11 30 6 44 21 17 10 28 -91 90 -130 80 -144 94 -144 146 0 40 5 49 69
115 66 69 71 72 108 67 25 -4 90 -38 193 -104z m-3078 -52 c30 -29 128 -216
128 -243 0 -15 -9 -38 -21 -53 l-21 -26 -31 26 c-18 14 -60 53 -93 85 l-62 59
-121 -101 c-119 -99 -141 -120 -101 -99 18 9 23 7 38 -20 35 -65 30 -66 130
21 52 45 97 77 101 73 9 -10 31 -116 31 -147 0 -13 -5 -17 -15 -13 -9 3 -40
-17 -80 -51 -36 -30 -65 -57 -65 -59 0 -3 14 -32 31 -67 l32 -62 -54 -47 c-30
-26 -58 -48 -64 -48 -9 0 -41 57 -213 373 l-43 80 23 23 c49 48 364 307 383
315 26 11 65 2 87 -19z m2690 -126 c41 -26 55 -40 52 -53 -4 -14 17 -32 91
-77 52 -32 95 -62 95 -66 0 -4 -20 -24 -45 -45 l-46 -37 -125 79 c-162 100
-184 140 -123 217 24 31 26 31 101 -18z m-2530 -240 c43 -19 55 -33 40 -48 -7
-7 -24 3 -54 32 -23 23 -38 40 -33 38 6 -3 27 -12 47 -22z m1533 -311 c92
-132 170 -247 173 -255 3 -8 18 -30 33 -49 l27 -34 -30 -41 c-16 -22 -34 -40
-40 -38 -5 1 -6 -2 -3 -8 4 -6 -3 -34 -15 -61 -45 -106 -36 -250 20 -328 16
-21 26 -42 22 -46 -4 -4 -2 -5 3 -3 6 1 27 -7 47 -20 57 -35 144 -48 224 -33
83 15 132 39 172 85 81 92 64 281 -38 434 -21 31 -38 57 -37 58 1 0 157 132
345 293 189 161 345 291 347 289 2 -2 -14 -123 -35 -268 -22 -146 -64 -433
-94 -639 -30 -206 -59 -378 -63 -382 -13 -12 -268 -95 -378 -123 -129 -32
-277 -60 -440 -82 -184 -26 -664 -26 -850 0 -250 34 -414 70 -632 138 l-131
41 -42 216 c-127 664 -206 1091 -201 1091 6 0 343 -312 489 -452 45 -44 80
-84 77 -89 -3 -5 2 -6 11 -2 11 4 15 2 11 -4 -4 -6 2 -13 14 -16 l20 -5 -20
-41 c-68 -133 -65 -314 6 -409 14 -18 22 -36 19 -39 -3 -4 -6 -1 -6 6 0 7 -5
9 -12 5 -7 -4 -8 -3 -4 4 4 7 5 12 2 12 -18 0 -12 -21 10 -35 15 -9 23 -12 19
-5 -5 8 -3 11 6 8 8 -3 13 -11 12 -17 -2 -6 0 -10 5 -9 4 0 30 -9 57 -22 39
-19 67 -24 130 -24 92 -1 149 20 203 73 57 58 67 86 67 191 0 84 -3 102 -29
158 -16 34 -41 79 -56 99 l-27 37 220 293 c121 161 221 292 223 291 1 -2 78
-111 169 -243z m2031 158 c39 -49 105 -132 147 -185 l77 -97 -49 -26 c-28 -14
-54 -25 -59 -25 -5 0 -57 62 -117 138 -139 176 -138 175 -122 133 11 -29 10
-34 -7 -46 -11 -9 -15 -19 -10 -27 7 -12 106 -137 141 -179 12 -15 9 -20 -33
-43 -25 -14 -52 -26 -59 -26 -9 0 -94 99 -162 189 -10 14 -22 11 -102 -28 -50
-25 -92 -43 -94 -40 -2 2 -22 28 -46 57 -24 29 -41 56 -37 59 11 11 440 232
452 233 6 0 42 -39 80 -87z m-4194 -181 c129 -129 148 -152 148 -180 0 -24
-27 -74 -111 -200 -61 -92 -120 -175 -131 -184 -11 -10 -36 -18 -56 -18 -33 0
-48 12 -184 148 -129 128 -148 152 -148 180 0 23 29 75 116 207 63 96 123 179
132 185 9 5 33 10 52 10 31 0 48 -14 182 -148z m4156 -452 c12 -21 22 -41 22
-44 0 -5 -89 -36 -106 -36 -14 0 -58 70 -49 79 6 5 91 38 105 40 3 1 15 -17
28 -39z m456 -62 c29 -26 156 -370 156 -423 0 -47 -36 -76 -96 -78 l-48 -2
-23 63 c-24 65 -23 82 3 82 20 0 19 9 -27 138 -37 105 -40 120 -31 164 5 26 8
48 7 48 0 0 -23 -21 -51 -46 -66 -62 -144 -114 -171 -114 -30 0 -54 -10 -48
-21 8 -12 -47 -38 -86 -41 -30 -3 -33 0 -50 47 -23 65 -23 98 -1 125 15 18 44
25 207 50 237 35 229 35 259 8z m-5174 -45 c7 -32 15 -74 20 -95 6 -29 4 -37
-9 -41 -11 -3 -28 -45 -55 -138 -22 -74 -42 -141 -45 -149 -4 -13 -2 -13 12
-1 18 14 52 7 42 -9 -4 -6 7 -28 24 -49 45 -57 151 -214 147 -218 -1 -2 -43
19 -92 46 -49 27 -132 72 -184 100 -86 45 -95 53 -94 78 0 29 126 451 145 489
11 21 42 42 66 43 6 1 17 -25 23 -56z m109 -4 c101 -53 141 -87 141 -120 0
-28 -10 -24 -92 30 -69 47 -172 141 -153 141 4 0 51 -23 104 -51z m93 -215
c101 -51 140 -61 337 -89 399 -58 571 -124 657 -255 22 -33 97 -300 118 -421
6 -33 10 -37 64 -53 31 -9 90 -29 129 -43 l73 -26 -63 -47 c-108 -82 -145
-144 -154 -261 -7 -92 -7 -92 72 -29 l40 32 11 -56 c13 -66 50 -117 110 -156
52 -32 210 -87 286 -98 l53 -7 -101 -103 -102 -102 62 0 c57 1 105 8 168 25
l27 7 -16 -59 c-8 -33 -26 -70 -41 -85 -37 -40 -14 -34 57 13 165 110 281 310
281 484 l0 61 61 43 c33 23 72 60 87 81 31 44 59 60 105 60 44 -1 69 -17 111
-72 20 -26 64 -68 99 -94 34 -27 65 -52 68 -57 4 -5 9 -37 12 -71 12 -128 84
-263 195 -368 67 -62 152 -118 152 -100 0 6 -6 12 -14 15 -15 6 -89 126 -100
164 l-7 22 55 -25 c61 -28 211 -63 222 -52 3 4 -35 52 -85 106 -50 54 -91 102
-91 106 0 3 19 6 43 6 89 0 166 32 275 113 38 27 53 32 116 35 114 6 189 -41
239 -147 27 -56 32 -80 35 -164 10 -245 -92 -459 -290 -605 -29 -21 -71 -48
-93 -59 l-40 -21 -42 80 c-84 156 -208 281 -364 366 -61 33 -73 46 -127 127
-32 50 -75 117 -95 150 -74 124 -147 174 -256 175 -78 0 -139 -26 -178 -76
-29 -39 -26 -53 9 -30 30 19 152 39 192 30 45 -9 88 -38 109 -72 28 -48 24
-52 -60 -52 -167 0 -307 -61 -428 -184 -22 -23 -71 -60 -110 -83 -243 -145
-410 -382 -432 -615 -3 -37 -10 -68 -15 -68 -15 0 -111 51 -173 93 -92 61
-242 220 -297 313 -112 191 -151 344 -151 599 0 186 14 314 43 409 110 355
122 401 115 454 -18 146 -83 301 -151 361 -74 65 -161 90 -502 146 -134 22
-136 22 -128 -17 6 -31 144 -315 201 -413 43 -75 109 -158 150 -189 41 -31
158 -88 223 -107 46 -13 48 -21 31 -81 -12 -46 -22 -47 -153 -18 -217 48 -377
171 -478 365 -61 118 -113 208 -190 323 -37 56 -68 104 -68 107 0 2 16 9 35
15 42 14 42 16 11 168 -13 61 -22 112 -19 112 2 0 36 -16 75 -36z m4774 9 c-2
-10 -10 -45 -16 -78 -17 -91 -17 -90 -73 -118 -59 -30 -111 -42 -212 -52 -303
-29 -461 -76 -572 -171 -84 -72 -178 -217 -213 -329 -27 -87 -62 -155 -81
-155 -22 0 -43 63 -29 88 5 10 30 103 55 207 53 219 69 258 131 315 99 91 254
140 595 189 203 29 329 64 385 106 26 19 36 19 30 -2z m-4904 -157 c3 -16 0
-27 -10 -31 -20 -7 -21 -5 -15 28 7 34 19 35 25 3z m3683 -308 c-14 -114 -5
-104 -118 -139 -240 -74 -514 -134 -762 -165 -103 -14 -201 -18 -370 -17 -266
1 -457 26 -720 93 -130 33 -363 105 -374 115 -2 3 -31 141 -31 151 0 1 35 -9
78 -22 271 -85 516 -130 865 -159 169 -14 226 -15 392 -5 107 6 199 9 205 5 5
-3 10 -2 10 3 0 11 185 33 220 26 21 -4 22 -3 5 4 -15 7 -10 10 28 15 26 4 61
4 79 2 22 -4 27 -3 15 3 -13 5 10 14 82 30 56 13 106 20 113 16 6 -4 8 -3 5 3
-4 7 18 17 56 26 34 9 94 27 132 41 99 35 98 35 90 -26z m-3730 -327 c51 -23
119 -96 135 -145 7 -21 10 -66 8 -101 -13 -214 -267 -309 -419 -157 -34 34
-51 62 -63 101 -20 67 -20 85 -2 144 42 140 210 218 341 158z m5300 -9 c107
-55 157 -176 124 -296 -14 -52 -90 -131 -144 -152 -67 -25 -160 -16 -221 22
-97 60 -141 191 -99 299 19 51 96 126 147 143 48 16 147 8 193 -16z m-3350
-331 c98 -38 181 -73 183 -79 5 -16 -66 -82 -107 -100 -147 -63 -341 54 -341
205 0 68 5 75 48 58 21 -8 118 -46 217 -84z m1383 36 c9 -137 -144 -259 -287
-229 -30 7 -72 23 -93 37 -39 26 -75 71 -65 81 12 12 413 163 427 161 10 -2
16 -17 18 -50z m-2983 -740 c52 -131 95 -251 95 -267 0 -58 -35 -74 -222 -101
-124 -18 -124 -18 -214 207 -40 98 -76 178 -81 177 -89 -17 -127 -22 -132 -18
-10 6 -64 145 -59 150 5 5 152 35 268 55 41 7 102 19 135 26 118 25 103 41
210 -229z m4955 122 c0 -9 -5 -30 -11 -47 l-11 -31 -54 27 c-59 28 -59 30 -34
97 l10 25 50 -27 c27 -16 50 -35 50 -44z m-391 -20 c17 -13 31 -29 31 -36 0
-8 -14 -40 -30 -73 -28 -55 -32 -59 -50 -48 -10 7 -21 10 -24 8 -2 -3 -32 -63
-65 -135 -49 -101 -56 -124 -37 -106 l24 23 96 -71 c53 -39 98 -71 101 -71 7
0 95 177 95 192 0 6 -7 19 -15 28 -14 15 -12 24 16 83 17 37 34 67 38 67 3 0
30 -21 59 -46 43 -38 52 -51 52 -78 0 -34 -156 -374 -187 -408 -35 -39 -70
-24 -241 102 -164 121 -190 149 -176 194 20 64 170 365 192 385 31 28 75 24
121 -10z m-2224 -174 c137 -29 204 -56 248 -102 66 -69 145 -180 152 -214 6
-26 3 -36 -18 -57 -30 -30 -40 -28 -210 37 -137 53 -186 62 -327 63 -202 1
-322 -43 -428 -156 -48 -51 -65 -79 -78 -122 -29 -99 1 -207 66 -242 37 -19
122 -8 175 23 29 16 60 48 86 88 56 84 86 115 124 127 40 13 79 0 112 -38 39
-46 153 -294 153 -334 0 -5 -19 1 -42 13 -94 48 -220 62 -311 35 -25 -8 -82
-34 -125 -59 -108 -63 -174 -80 -281 -75 -132 7 -205 52 -255 157 -28 59 -31
75 -30 151 3 161 71 313 203 452 112 118 263 211 405 248 89 24 280 26 381 5z
m-2174 -295 c23 -13 255 -319 269 -355 6 -16 5 -35 -2 -56 -10 -29 -29 -41
-196 -121 -157 -76 -190 -89 -219 -83 -29 5 -49 27 -151 163 -132 175 -142
191 -142 224 0 45 31 70 179 140 80 38 160 75 176 83 36 17 60 19 86 5z m3968
-216 l33 -47 -49 -51 c-26 -28 -88 -93 -138 -145 -71 -73 -83 -89 -56 -76 32
16 34 16 47 -3 13 -18 19 -14 109 77 l95 96 19 -24 c58 -75 60 -67 -39 -172
-49 -52 -89 -98 -90 -102 0 -4 25 -43 55 -86 l54 -77 -54 -54 c-34 -33 -58
-50 -63 -45 -5 6 -73 101 -151 213 l-143 203 163 169 c89 94 165 170 168 170
4 0 22 -21 40 -46z m423 -156 c-32 -54 -39 -55 -84 -10 l-41 41 27 42 28 41
44 -42 43 -43 -17 -29z m-3817 -238 c99 -79 186 -150 193 -158 6 -9 12 -32 12
-52 0 -39 -24 -67 -148 -168 -68 -56 -86 -61 -133 -36 -17 8 -32 14 -33 12 -2
-2 -11 -33 -20 -70 -10 -38 -20 -68 -22 -68 -8 0 -124 93 -124 99 0 3 9 39 19
79 l19 72 -70 55 -70 55 -26 -19 c-15 -10 -38 -31 -51 -45 -14 -14 -29 -26
-34 -26 -11 0 -127 92 -126 100 0 3 91 81 201 173 178 149 202 166 217 154 9
-8 97 -78 196 -157z m-1270 68 c156 -236 400 -509 620 -694 140 -119 393 -291
530 -362 l40 -21 -622 -1 -623 0 0 575 c0 316 2 575 4 575 1 0 25 -33 51 -72z
m5465 -518 l0 -560 -612 0 -613 1 40 21 c81 42 270 163 369 236 294 218 581
518 771 805 21 31 39 57 41 57 2 0 4 -252 4 -560z m-1385 311 c19 -11 35 -32
42 -54 12 -40 10 -43 -75 -86 -35 -18 -47 -20 -58 -10 -12 9 -36 1 -127 -46
-132 -68 -138 -72 -93 -67 27 3 34 0 39 -18 5 -21 10 -20 127 41 178 92 212
85 255 -54 29 -96 31 -124 10 -154 -15 -22 -301 -178 -353 -193 -43 -12 -90
12 -107 54 -8 20 -15 40 -15 46 0 5 28 24 62 41 47 24 66 29 78 21 13 -8 43 3
133 49 65 33 117 62 117 64 0 2 -16 1 -35 -2 -31 -5 -35 -3 -35 15 0 11 -3 23
-8 25 -4 3 -64 -23 -134 -58 -114 -57 -131 -63 -160 -55 -46 13 -61 36 -88
130 -35 124 -33 127 182 239 95 50 182 91 193 91 11 0 34 -8 50 -19z m-2308
-155 c245 -105 255 -111 255 -171 0 -35 -42 -105 -63 -105 -5 0 -39 13 -75 30
-60 27 -64 31 -52 49 7 11 10 22 8 24 -3 2 -63 29 -135 60 -71 31 -120 49
-107 40 12 -8 22 -21 22 -27 0 -6 -29 -51 -65 -101 -35 -49 -65 -93 -65 -97 0
-8 100 -56 166 -80 32 -11 37 -11 50 6 13 18 16 18 84 -10 38 -16 70 -34 70
-40 0 -16 -67 -102 -90 -114 -10 -5 -26 -10 -35 -10 -9 0 -101 36 -203 80
-190 82 -232 110 -232 154 0 24 204 327 242 359 33 28 68 21 225 -47z m1768
-92 c35 -14 43 -56 51 -252 8 -210 4 -232 -45 -251 -43 -18 -364 -91 -397 -91
-18 0 -42 8 -55 19 -28 23 -37 97 -38 309 -1 129 1 144 19 162 11 11 30 22 42
25 13 3 95 23 183 44 161 39 209 46 240 35z m-1294 -60 c78 -18 78 -17 37 -97
-17 -34 -23 -38 -46 -33 -24 6 -25 5 -7 -5 11 -7 22 -13 24 -15 2 -2 -31 -82
-74 -177 l-77 -174 -76 17 c-55 12 -76 21 -74 31 7 32 207 469 215 469 4 0 39
-7 78 -16z m330 -108 c36 -9 77 -16 92 -16 22 0 27 -5 32 -32 3 -18 14 -86 25
-152 10 -65 21 -120 23 -122 2 -2 19 67 38 152 28 129 38 158 54 164 11 5 43
16 70 25 28 9 57 18 66 21 13 5 6 -40 -40 -243 l-57 -248 -132 -3 c-100 -2
-134 1 -137 10 -3 7 -19 89 -35 182 -16 93 -31 170 -33 172 -2 2 -18 -60 -36
-139 -18 -78 -37 -159 -42 -179 l-10 -38 -79 0 c-50 0 -80 4 -80 11 0 6 9 47
20 92 24 101 90 393 90 401 0 3 24 -5 53 -18 28 -13 82 -31 118 -40z"/>
<path d="M3265 6200 c-3 -5 -1 -10 4 -10 6 0 11 5 11 10 0 6 -2 10 -4 10 -3 0
-8 -4 -11 -10z"/>
<path d="M4053 6109 l27 -21 -55 -102 c-30 -57 -55 -107 -55 -113 0 -5 42 -21
93 -36 50 -15 115 -34 142 -42 l50 -15 -28 21 -27 21 55 106 c30 59 51 110 47
114 -4 4 -68 25 -142 47 -111 33 -130 36 -107 20z"/>
<path d="M3276 4962 c-64 -98 -116 -182 -116 -187 0 -11 221 -699 227 -705 8
-9 24 30 110 282 56 164 91 253 96 245 6 -8 7 -5 3 7 -4 11 5 54 19 97 l26 78
-80 120 c-52 78 -77 123 -69 127 7 5 8 3 3 -6 -5 -8 -4 -11 3 -6 5 3 12 0 15
-6 4 -10 7 -11 18 0 11 10 10 12 -5 12 -9 0 -15 4 -11 9 3 6 -5 8 -17 6 -19
-4 -30 6 -58 46 -19 28 -37 52 -41 55 -4 2 -59 -76 -123 -174z"/>
<path d="M3550 5001 c0 -10 39 -36 45 -29 2 2 -8 11 -21 21 -13 10 -24 13 -24
8z"/>
<path d="M3600 4961 c-8 -6 -19 -7 -25 -4 -5 4 -7 3 -3 -2 4 -4 3 -16 -2 -25
-7 -14 -6 -18 5 -16 8 1 18 6 22 11 4 4 2 5 -4 1 -23 -13 -14 11 10 27 23 17
22 23 -3 8z"/>
<path d="M3614 4939 c-3 -6 3 -21 15 -32 11 -12 21 -16 21 -10 0 6 -7 14 -16
17 -13 5 -14 9 -4 21 8 10 9 15 2 15 -6 0 -14 -5 -18 -11z"/>
<path d="M3686 4895 c9 -23 -21 -28 -55 -10 -31 16 -57 12 -45 -6 3 -5 10 -6
16 -3 7 4 8 2 4 -4 -3 -6 3 -26 15 -44 12 -18 18 -24 14 -13 -12 33 -11 48 4
53 10 3 12 0 7 -13 -5 -15 -4 -16 9 -5 17 14 19 7 5 -20 -7 -13 -6 -21 2 -26
7 -4 10 -4 6 1 -4 4 -2 17 4 29 7 11 13 26 13 31 1 6 7 9 13 7 10 -2 10 3 2
18 -12 23 -22 27 -14 5z"/>
<path d="M3701 4844 c0 -11 3 -14 6 -6 3 7 2 16 -1 19 -3 4 -6 -2 -5 -13z"/>
<path d="M3730 4845 c7 -8 17 -15 22 -15 5 0 3 7 -6 15 -8 8 -18 15 -22 15 -3
0 -1 -7 6 -15z"/>
<path d="M3681 4819 c2 -7 -3 -24 -10 -37 -7 -13 -10 -28 -7 -35 2 -7 5 -4 5
6 1 10 6 15 12 12 6 -4 9 0 7 11 -2 11 2 18 10 17 17 -4 15 12 -4 28 -13 11
-15 11 -13 -2z"/>
<path d="M2479 4810 c-7 -5 -10 -13 -5 -17 5 -4 11 -2 14 6 3 10 8 7 18 -10
12 -22 13 -22 14 -4 1 19 2 19 9 2 7 -18 7 -18 21 0 8 10 10 15 6 11 -5 -4
-14 -4 -20 1 -20 15 -43 19 -57 11z"/>
<path d="M3730 4786 c15 -15 13 -41 -2 -28 -17 14 -32 -5 -35 -43 -2 -22 0
-26 7 -15 5 8 10 23 10 33 0 17 15 24 22 9 2 -4 16 8 33 27 23 28 24 32 6 16
-18 -15 -23 -16 -19 -5 4 11 0 16 -13 16 -12 0 -15 -4 -9 -10z"/>
<path d="M2457 4773 c-4 -3 -7 -11 -7 -17 0 -6 5 -5 12 2 6 6 9 14 7 17 -3 3
-9 2 -12 -2z"/>
<path d="M2462 4729 c-7 -12 -11 -24 -8 -27 3 -3 6 0 6 7 0 7 9 3 20 -10 10
-13 19 -19 20 -12 0 6 -6 18 -13 25 -8 7 -12 19 -9 26 6 18 -2 14 -16 -9z"/>
<path d="M2501 4745 c1 -19 18 -51 18 -35 0 8 -4 22 -9 30 -5 8 -9 11 -9 5z"/>
<path d="M3633 4719 c-8 -21 -9 -38 -3 -48 7 -12 10 -8 10 19 0 26 3 31 10 20
11 -17 12 -4 2 23 -6 14 -9 12 -19 -14z"/>
<path d="M2466 4670 c11 -43 20 -55 28 -34 4 10 4 15 0 11 -4 -4 -14 5 -21 20
-12 26 -12 26 -7 3z"/>
<path d="M3691 4664 c0 -11 3 -14 6 -6 3 7 2 16 -1 19 -3 4 -6 -2 -5 -13z"/>
<path d="M2412 4590 c0 -19 2 -27 5 -17 2 9 2 25 0 35 -3 9 -5 1 -5 -18z"/>
<path d="M3580 4564 c0 -8 5 -12 10 -9 6 4 8 11 5 16 -9 14 -15 11 -15 -7z"/>
<path d="M3651 4498 c1 -47 3 -57 9 -38 12 36 12 100 0 100 -6 0 -10 -27 -9
-62z"/>
<path d="M2427 4543 c-4 -3 -7 -15 -7 -26 0 -25 13 -14 17 13 3 21 1 24 -10
13z"/>
<path d="M2482 4490 c0 -14 2 -19 5 -12 2 6 2 18 0 25 -3 6 -5 1 -5 -13z"/>
<path d="M2443 4470 c1 -20 8 -35 17 -37 12 -4 13 -3 1 5 -8 6 -11 16 -8 24 3
8 1 21 -3 28 -5 9 -8 1 -7 -20z"/>
<path d="M3556 4483 c-6 -14 -5 -15 5 -6 7 7 10 15 7 18 -3 3 -9 -2 -12 -12z"/>
<path d="M3571 4460 c0 -8 4 -22 9 -30 12 -18 12 -2 0 25 -6 13 -9 15 -9 5z"/>
<path d="M3550 4436 c0 -7 7 -19 15 -26 8 -7 12 -16 9 -21 -3 -5 0 -9 5 -9 6
0 11 4 11 10 0 5 7 7 16 3 11 -4 12 -8 4 -13 -7 -4 -8 -10 -4 -13 5 -3 15 1
21 8 10 11 8 15 -10 21 -12 5 -25 7 -30 6 -4 -1 -12 9 -17 23 -10 27 -20 33
-20 11z"/>
<path d="M2476 4425 c-3 -9 -6 -22 -5 -28 0 -7 5 -1 10 12 5 13 8 26 5 28 -2
2 -6 -3 -10 -12z"/>
<path d="M3530 4415 c0 -8 4 -15 10 -15 5 0 7 7 4 15 -4 8 -8 15 -10 15 -2 0
-4 -7 -4 -15z"/>
<path d="M3664 4406 c-9 -10 -7 -15 7 -24 12 -8 19 -8 19 -2 0 5 -4 10 -10 10
-5 0 -7 7 -4 15 7 18 3 19 -12 1z"/>
<path d="M2496 4388 c3 -5 10 -6 15 -3 13 9 11 12 -6 12 -8 0 -12 -4 -9 -9z"/>
<path d="M3542 4357 c-15 -42 -15 -54 1 -54 7 0 12 16 13 44 1 24 1 43 0 43
-1 0 -7 -15 -14 -33z"/>
<path d="M2516 4371 c-4 -6 -3 -18 2 -27 6 -11 11 -13 16 -5 4 6 3 18 -2 27
-6 11 -11 13 -16 5z"/>
<path d="M3516 4371 c-4 -7 -5 -15 -2 -18 9 -9 19 4 14 18 -4 11 -6 11 -12 0z"/>
<path d="M3655 4362 c6 -4 21 -20 35 -37 l25 -29 -40 28 -40 27 34 -30 c43
-38 69 -32 44 10 -10 17 -20 24 -24 18 -4 -7 -8 -5 -12 5 -4 9 -12 16 -19 16
-8 0 -9 -3 -3 -8z"/>
<path d="M3500 4319 c0 -5 5 -7 10 -4 6 3 10 8 10 11 0 2 -4 4 -10 4 -5 0 -10
-5 -10 -11z"/>
<path d="M3492 4270 c7 -10 14 -18 15 -16 6 6 -9 36 -18 36 -5 0 -4 -9 3 -20z"/>
<path d="M3470 4251 c0 -5 5 -13 10 -16 6 -3 10 -2 10 4 0 5 -4 13 -10 16 -5
3 -10 2 -10 -4z"/>
<path d="M3452 4189 c-7 -27 -7 -38 -1 -32 11 11 24 73 16 73 -3 0 -9 -19 -15
-41z"/>
<path d="M1133 4979 c-88 -131 -92 -139 -64 -115 l22 20 88 -88 89 -89 82 124
c46 68 71 113 56 99 l-27 -24 -88 88 -89 88 -69 -103z"/>
<path d="M4581 3904 c0 -11 3 -14 6 -6 3 7 2 16 -1 19 -3 4 -6 -2 -5 -13z"/>
<path d="M4514 3876 c11 -9 27 -16 35 -15 14 0 14 1 1 6 -8 3 -24 10 -35 15
-20 9 -20 9 -1 -6z"/>
<path d="M4572 3855 c0 -16 2 -22 5 -12 2 9 2 23 0 30 -3 6 -5 -1 -5 -18z"/>
<path d="M4465 3860 c-16 -7 -17 -9 -3 -9 9 -1 20 4 23 9 7 11 7 11 -20 0z"/>
<path d="M4165 3800 c-16 -4 -23 -8 -15 -9 13 -1 13 -2 0 -11 -12 -7 -11 -9 5
-8 11 1 31 -2 45 -5 20 -6 19 -4 -5 8 -18 8 -23 14 -13 15 9 0 20 5 23 10 7
11 3 11 -40 0z"/>
<path d="M4233 3785 c0 -7 6 -11 14 -8 7 3 13 6 13 8 0 2 -6 5 -13 8 -8 3 -14
-1 -14 -8z"/>
<path d="M4040 3770 c0 -5 7 -10 16 -10 8 0 12 5 9 10 -3 6 -10 10 -16 10 -5
0 -9 -4 -9 -10z"/>
<path d="M4266 3771 c-4 -5 3 -7 14 -4 23 6 26 13 6 13 -8 0 -17 -4 -20 -9z"/>
<path d="M4480 3771 c0 -5 -14 -14 -31 -20 -38 -13 -60 -14 -40 -2 9 6 6 9
-12 9 -23 0 -24 -2 -11 -16 14 -14 21 -13 70 2 51 16 72 36 39 36 -8 0 -15 -4
-15 -9z"/>
<path d="M4108 3763 c7 -3 16 -2 19 1 4 3 -2 6 -13 5 -11 0 -14 -3 -6 -6z"/>
<path d="M4305 3760 c-3 -5 -1 -10 4 -10 6 0 11 5 11 10 0 6 -2 10 -4 10 -3 0
-8 -4 -11 -10z"/>
<path d="M3810 3734 c-22 -8 -28 -13 -15 -13 11 0 31 6 45 14 31 17 17 17 -30
-1z"/>
<path d="M4309 3731 c11 -7 11 -10 -3 -14 -15 -5 -15 -5 0 -3 24 2 30 26 7 26
-14 0 -15 -2 -4 -9z"/>
<path d="M4350 3720 c-9 -6 -10 -10 -3 -10 6 0 15 5 18 10 8 12 4 12 -15 0z"/>
<path d="M3517 3714 c-3 -4 -41 -6 -83 -6 -42 1 -74 -1 -71 -4 9 -9 141 -5
172 5 23 7 25 9 9 10 -11 1 -23 -2 -27 -5z"/>
<path d="M3650 3716 c0 -2 9 -6 20 -9 11 -3 18 -1 14 4 -5 9 -34 13 -34 5z"/>
<path d="M3735 3712 c29 -5 29 -5 -15 -18 l-45 -14 40 6 c22 4 54 7 70 7 l30
0 -30 13 c-16 7 -41 13 -55 12 -22 -1 -21 -2 5 -6z"/>
<path d="M3590 3700 c20 -13 33 -13 25 0 -3 6 -14 10 -23 10 -15 0 -15 -2 -2
-10z"/>
<path d="M3368 3683 c7 -3 16 -2 19 1 4 3 -2 6 -13 5 -11 0 -14 -3 -6 -6z"/>
<path d="M3990 3670 c0 -5 5 -10 11 -10 5 0 7 5 4 10 -3 6 -8 10 -11 10 -2 0
-4 -4 -4 -10z"/>
<path d="M4115 3670 c-13 -6 -1 -7 35 -3 30 3 57 7 59 9 9 8 -75 2 -94 -6z"/>
<path d="M4045 3650 c3 -5 14 -10 23 -10 15 0 15 2 2 10 -20 13 -33 13 -25 0z"/>
<path d="M3933 3643 c9 -2 23 -2 30 0 6 3 -1 5 -18 5 -16 0 -22 -2 -12 -5z"/>
<path d="M3996 3642 c-2 -4 4 -8 15 -8 10 0 19 4 19 8 0 4 -6 8 -14 8 -8 0
-17 -4 -20 -8z"/>
<path d="M3251 3598 c-13 -20 -12 -22 1 -11 8 7 18 10 22 6 4 -4 4 0 0 10 -8
21 -6 21 -23 -5z"/>
<path d="M3448 3583 c6 -2 18 -2 25 0 6 3 1 5 -13 5 -14 0 -19 -2 -12 -5z"/>
<path d="M3658 3583 c7 -3 16 -2 19 1 4 3 -2 6 -13 5 -11 0 -14 -3 -6 -6z"/>
<path d="M3563 3573 c9 -2 23 -2 30 0 6 3 -1 5 -18 5 -16 0 -22 -2 -12 -5z"/>
<path d="M3433 3563 c9 -2 25 -2 35 0 9 3 1 5 -18 5 -19 0 -27 -2 -17 -5z"/>
<path d="M655 3501 c-54 -33 -69 -57 -59 -93 8 -27 17 -35 46 -42 31 -8 40 -5
72 19 48 36 50 81 6 113 -35 26 -28 26 -65 3z"/>
<path d="M808 3499 c-42 -31 -39 -78 8 -114 28 -22 42 -26 69 -21 27 5 36 13
45 42 11 32 10 38 -11 61 -20 21 -70 54 -81 53 -2 0 -15 -10 -30 -21z"/>
<path d="M573 3318 c-20 -21 -20 -26 -8 -61 18 -52 33 -67 66 -67 19 0 34 8
45 25 14 22 15 31 4 69 -10 37 -17 45 -42 50 -43 8 -42 9 -65 -16z"/>
<path d="M878 3333 c-9 -2 -23 -23 -31 -47 -13 -39 -13 -44 5 -69 14 -19 29
-27 49 -27 23 0 32 7 49 40 26 51 25 75 -2 94 -22 16 -37 18 -70 9z"/>
<path d="M701 3201 c-41 -57 8 -101 96 -85 41 8 54 43 30 83 -12 21 -25 27
-60 29 -40 3 -47 0 -66 -27z"/>
<path d="M5931 3496 c-51 -38 -60 -55 -48 -89 6 -19 22 -34 44 -43 32 -14 36
-13 73 13 34 24 40 33 40 65 0 28 -6 42 -26 57 -34 27 -43 26 -83 -3z"/>
<path d="M6098 3502 c-23 -14 -28 -24 -28 -57 0 -35 5 -43 38 -66 33 -24 41
-25 71 -15 22 7 37 21 46 43 13 31 13 33 -31 72 -49 46 -57 48 -96 23z"/>
<path d="M5866 3325 c-27 -22 -28 -24 -16 -61 19 -57 39 -84 64 -84 26 0 37 8
58 38 15 22 15 28 1 68 -8 24 -16 44 -17 44 0 0 -15 4 -31 9 -25 7 -36 4 -59
-14z"/>
<path d="M6174 3335 c-44 -18 -61 -77 -34 -120 28 -45 73 -47 96 -3 32 61 34
84 11 106 -34 30 -40 31 -73 17z"/>
<path d="M5987 3201 c-22 -37 -21 -47 3 -71 20 -20 80 -27 115 -14 31 12 38
52 14 85 -18 25 -27 29 -68 29 -41 0 -49 -4 -64 -29z"/>
<path d="M1030 2592 c0 -21 -8 -25 -67 -37 l-31 -6 49 -122 c27 -67 53 -124
57 -128 7 -7 101 6 110 15 4 4 -105 286 -114 295 -2 2 -4 -5 -4 -17z"/>
<path d="M1325 1999 c6 -24 1 -28 -105 -77 -78 -37 -109 -56 -104 -65 17 -27
147 -197 151 -197 3 0 3 7 -1 15 -4 11 23 29 104 70 61 30 110 57 110 60 0 5
-135 191 -152 210 -6 6 -7 0 -3 -16z"/>
<path d="M1733 1534 c23 -28 22 -30 -19 -66 l-36 -32 28 -24 c71 -58 184 -142
191 -142 12 0 83 60 83 69 0 4 -35 35 -77 68 -43 33 -103 80 -133 104 -30 24
-47 34 -37 23z"/>
<path d="M3955 975 c-76 -19 -117 -33 -99 -34 l32 -1 7 -125 c5 -82 11 -125
19 -125 33 1 276 68 249 69 l-31 1 -6 73 c-4 39 -7 94 -9 122 -1 36 -6 50 -17
51 -8 1 -73 -13 -145 -31z"/>
<path d="M3195 920 c28 -12 37 -12 30 0 -3 6 -16 10 -28 9 -21 0 -21 -1 -2 -9z"/>
</g>
</svg>
